<?xml version="1.0" standalone="no"?>
<!DOCTYPE svg PUBLIC "-//W3C//DTD SVG 20010904//EN"
 "http://www.w3.org/TR/2001/REC-SVG-20010904/DTD/svg10.dtd">
<svg version="1.0" xmlns="http://www.w3.org/2000/svg"
 width="1024.000000pt" height="1024.000000pt" viewBox="0 0 1024.000000 1024.000000"
 preserveAspectRatio="xMidYMid meet">

<g transform="translate(0.000000,1024.000000) scale(0.100000,-0.100000)"
fill="#000000" stroke="none">
<path d="M4263 9865 c-115 -32 -171 -79 -228 -191 -37 -74 -46 -172 -21 -234
9 -22 16 -42 16 -44 0 -1 -21 -17 -46 -35 -25 -18 -66 -51 -90 -72 -87 -75
-155 -50 -279 101 -75 91 -127 125 -225 146 -118 25 -267 -4 -343 -66 -56 -47
-123 -147 -142 -214 -35 -119 -6 -254 60 -284 36 -16 87 -15 111 3 18 14 17
14 -13 15 -111 1 -90 206 33 319 56 51 107 71 184 71 54 0 89 -19 139 -76 55
-62 53 -76 -10 -91 -62 -15 -174 -88 -230 -151 -54 -61 -76 -112 -85 -195 -4
-37 -10 -69 -13 -72 -4 -2 -52 3 -106 11 -55 7 -129 14 -165 14 -65 0 -66 0
-85 36 -25 46 -119 132 -170 155 -42 20 -69 24 -61 11 3 -4 -30 -2 -72 6 -193
34 -347 -30 -418 -174 -48 -99 -43 -246 11 -300 25 -25 88 -34 100 -14 3 6 -1
10 -9 10 -8 0 -28 11 -43 24 -26 22 -28 30 -27 94 0 100 35 168 117 226 34 24
80 49 102 55 57 16 150 14 193 -5 38 -15 148 -124 158 -156 3 -10 15 -18 27
-18 32 0 7 -15 -70 -41 -62 -20 -195 -100 -222 -132 -7 -9 -17 -15 -21 -12
-13 8 -68 -62 -104 -133 -18 -37 -46 -105 -61 -152 -32 -100 -36 -105 -89
-132 -32 -16 -52 -19 -101 -16 -62 5 -108 25 -217 91 -131 79 -260 69 -369
-30 -104 -94 -145 -252 -98 -377 21 -57 62 -101 104 -112 58 -14 163 55 185
122 10 30 9 38 -6 55 -25 27 -34 24 -32 -14 1 -43 -16 -73 -53 -92 -72 -38
-126 1 -136 97 -8 77 16 144 75 209 52 58 92 79 150 79 43 0 60 -11 168 -103
83 -70 155 -107 207 -107 21 0 37 -3 35 -7 -77 -150 -97 -213 -98 -308 -1
-100 -46 -187 -115 -219 -61 -29 -126 -22 -335 39 -131 38 -294 -8 -363 -103
-79 -109 -100 -191 -77 -302 11 -50 20 -67 51 -93 32 -28 43 -32 83 -29 57 5
59 15 6 31 -47 14 -60 34 -60 93 0 104 55 193 144 234 63 29 97 30 152 4 46
-23 198 -175 189 -190 -3 -5 -25 -14 -48 -21 -62 -16 -117 -51 -170 -108 -61
-65 -75 -98 -79 -189 -2 -60 -6 -71 -18 -66 -115 51 -185 54 -276 9 -69 -34
-128 -99 -172 -193 -34 -71 -37 -84 -36 -159 1 -63 7 -92 24 -125 26 -51 75
-104 101 -111 24 -6 24 -3 -2 51 -29 59 -23 169 12 232 39 71 89 103 162 108
56 4 65 1 98 -25 60 -48 159 -137 159 -143 0 -3 -33 -17 -72 -29 -121 -39
-180 -74 -246 -147 -83 -90 -105 -147 -103 -277 l0 -97 -42 22 c-63 32 -147
30 -215 -5 -118 -62 -166 -148 -166 -297 0 -64 5 -84 29 -129 35 -64 72 -97
126 -111 37 -10 72 -4 41 7 -27 10 -75 59 -88 90 -29 67 -10 183 40 248 40 52
108 89 150 81 56 -11 171 -99 211 -162 45 -69 76 -99 140 -131 l49 -26 -34
-29 c-80 -67 -187 -96 -241 -67 -11 5 -30 9 -42 7 -21 -3 -20 -5 14 -41 35
-34 41 -37 95 -37 54 0 87 6 153 26 l24 7 -7 -66 c-7 -72 -14 -99 -25 -93 -3
2 -6 -9 -7 -25 -2 -44 -28 -75 -91 -106 -53 -26 -66 -28 -148 -25 -237 9 -225
10 -285 -30 -58 -37 -98 -86 -125 -150 -17 -42 -20 -145 -5 -198 23 -84 115
-163 184 -158 50 4 57 23 13 37 -63 21 -97 83 -97 177 0 52 41 134 87 175 32
27 41 30 77 25 35 -6 55 -21 144 -111 125 -126 171 -149 295 -150 75 0 78 -1
83 -25 2 -14 11 -47 20 -74 l16 -50 -65 -58 c-75 -67 -100 -118 -112 -232 l-7
-68 -45 6 c-78 10 -129 40 -163 93 -49 77 -56 114 -36 178 19 62 65 108 126
126 48 15 43 29 -12 29 -114 0 -197 -121 -186 -270 3 -46 11 -70 34 -102 59
-84 156 -135 263 -140 l43 -1 44 -95 c24 -52 41 -98 38 -103 -3 -5 -52 -32
-110 -60 -69 -34 -112 -61 -128 -82 -65 -87 -80 -167 -47 -242 12 -27 29 -58
39 -68 23 -25 80 -54 124 -62 55 -10 67 4 20 25 -58 26 -86 72 -87 141 0 79
20 102 145 166 115 58 155 91 178 143 l15 35 40 -85 c22 -47 42 -106 44 -132
l5 -47 -89 -88 c-109 -107 -146 -173 -151 -275 -4 -58 0 -75 27 -135 27 -56
41 -74 84 -102 29 -19 65 -34 81 -34 26 0 27 -2 11 -13 -10 -8 -54 -27 -97
-44 -104 -39 -161 -80 -204 -145 -63 -95 -57 -202 18 -312 63 -93 209 -123
270 -54 15 17 28 39 28 48 0 15 -1 15 -13 -1 -9 -12 -31 -20 -63 -23 -60 -6
-107 22 -138 82 -39 75 -16 162 57 217 28 22 46 26 132 30 111 6 191 32 225
75 l19 25 7 -29 c11 -46 34 -83 81 -134 l45 -49 -64 -29 c-73 -33 -123 -90
-152 -175 -33 -101 -17 -190 51 -279 38 -49 59 -66 126 -98 45 -21 86 -39 93
-39 15 0 74 48 74 61 0 5 -18 16 -40 25 -73 29 -140 128 -140 206 0 73 38 115
135 148 62 21 61 23 43 -61 -14 -70 1 -151 35 -187 19 -21 22 -35 23 -115 1
-73 6 -102 24 -139 27 -57 120 -142 176 -160 51 -17 49 -38 -6 -66 -89 -45
-201 -22 -230 47 -16 39 -40 39 -63 0 l-17 -31 37 -38 c26 -25 60 -44 105 -59
l66 -22 -43 -44 c-47 -47 -65 -92 -65 -166 0 -76 25 -142 69 -182 49 -44 67
-54 125 -67 60 -13 109 -1 156 39 40 33 37 49 -6 26 -94 -49 -217 17 -231 123
-17 129 69 216 227 229 l70 6 15 -36 c20 -49 19 -99 -5 -192 -22 -86 -26 -189
-9 -250 22 -78 115 -165 177 -165 22 0 32 -6 37 -19 3 -11 19 -22 35 -26 21
-5 35 -17 46 -41 22 -47 55 -70 131 -94 79 -24 96 -25 179 -4 64 16 98 40 134
94 16 22 17 22 49 6 46 -24 171 -37 178 -18 4 10 18 12 57 7 64 -8 228 -41
323 -66 40 -10 114 -23 165 -29 51 -6 100 -13 110 -16 9 -2 19 0 22 5 4 6 13
8 21 5 8 -3 22 1 31 10 13 14 15 33 11 109 -4 88 -20 189 -37 232 -5 11 -18
99 -30 195 -32 259 -18 360 52 360 10 0 21 6 24 13 6 16 40 15 56 -1 7 -7 18
-12 25 -12 15 0 63 -50 63 -66 0 -6 11 -21 24 -33 13 -12 32 -41 42 -64 10
-23 31 -55 46 -72 15 -16 33 -43 40 -60 6 -16 24 -46 38 -65 15 -19 35 -51 45
-70 10 -19 21 -37 25 -40 4 -3 31 -54 61 -114 58 -117 142 -220 189 -230 43
-9 150 -11 150 -3 0 5 8 7 18 5 22 -4 52 18 52 38 0 8 12 17 27 20 33 9 53 27
53 48 0 11 9 16 30 16 23 0 30 4 30 20 0 16 7 20 30 20 17 0 30 -4 30 -10 0
-5 18 -10 39 -10 31 0 41 -4 46 -20 3 -11 12 -20 18 -20 7 0 19 -9 27 -20 8
-11 20 -20 28 -20 18 0 33 -17 56 -63 14 -27 26 -37 43 -37 12 0 23 -4 23 -10
0 -5 7 -10 16 -10 9 0 29 -13 44 -30 15 -16 32 -30 37 -30 4 0 14 -9 21 -20
16 -26 52 -26 82 0 13 11 31 20 42 20 11 0 18 7 18 20 0 16 7 20 30 20 43 0
67 18 106 77 18 29 38 53 44 53 5 0 10 7 10 16 0 9 8 18 18 21 18 4 79 86 71
97 -2 3 6 12 17 21 12 8 25 30 28 49 4 20 12 41 19 48 7 7 26 39 42 72 17 32
40 63 53 69 12 5 22 15 22 21 0 7 20 18 45 25 25 7 50 21 55 30 8 14 11 14 19
1 6 -8 13 -11 17 -8 9 10 34 -17 34 -36 0 -9 5 -16 10 -16 6 0 10 -9 10 -20 0
-11 5 -20 10 -20 6 0 10 -22 10 -50 0 -27 -4 -50 -9 -50 -8 0 -10 -9 -31 -149
-13 -82 1 -201 26 -226 8 -7 14 -18 14 -23 0 -18 22 -19 109 -5 174 27 248 44
326 73 100 37 158 39 224 5 37 -18 58 -23 87 -18 49 8 113 35 161 68 21 14 41
25 45 25 3 0 9 -14 13 -31 9 -39 70 -108 112 -126 51 -21 139 -17 185 9 51 29
68 63 68 133 0 68 -21 116 -66 154 l-34 27 54 17 c111 35 246 150 265 226 6
20 14 60 18 90 l8 53 50 -33 c68 -46 95 -89 95 -151 0 -27 -6 -61 -14 -77 -19
-37 -91 -100 -127 -113 -54 -19 -26 -89 52 -128 41 -22 152 -28 179 -10 11 7
3 10 -30 10 -53 1 -130 32 -130 54 0 8 26 29 58 47 124 69 156 122 157 254 0
86 -2 93 -33 142 -42 65 -87 106 -149 133 -26 11 -55 28 -65 37 -17 15 -15 17
30 41 26 13 71 42 100 64 35 26 54 35 56 26 39 -124 51 -142 118 -192 50 -37
202 -61 259 -41 158 56 239 154 224 271 -16 130 -134 199 -253 148 -90 -39
-122 -39 -122 1 0 12 14 66 30 120 17 54 30 110 30 125 0 15 3 42 6 59 l7 31
34 -26 c45 -34 123 -64 167 -64 18 0 53 7 76 15 l43 15 29 -34 c36 -43 85 -60
155 -53 95 10 168 69 193 157 11 39 -1 39 -23 0 -24 -40 -87 -71 -158 -77 -74
-7 -107 2 -121 32 -9 21 -7 30 16 64 18 26 32 64 40 110 9 57 17 77 45 105 28
29 31 37 22 55 -15 26 -55 28 -82 2 -11 -10 -38 -21 -60 -25 -25 -4 -39 -12
-39 -21 0 -25 -20 -17 -61 24 -31 31 -39 46 -39 76 0 57 27 101 95 155 114 90
164 165 184 274 19 104 0 164 -95 295 -62 84 -67 102 -26 96 15 -2 69 -6 120
-9 110 -7 178 -32 223 -84 43 -49 62 -97 62 -162 0 -74 -30 -138 -93 -200 -57
-55 -62 -70 -23 -70 43 0 109 38 148 85 123 151 120 325 -9 463 -58 62 -137
100 -240 117 -167 27 -195 58 -215 235 -6 52 -10 118 -9 145 1 28 -1 68 -5 90
l-6 40 16 -35 c13 -25 19 -74 23 -175 3 -88 10 -149 18 -163 l13 -23 31 38
c17 21 48 64 70 96 l39 57 47 -39 c72 -59 122 -81 189 -81 129 1 223 48 287
144 42 64 53 95 90 253 23 97 25 118 15 157 -6 25 -17 50 -23 55 -9 8 -11 -13
-9 -87 l4 -97 -20 35 c-10 19 -33 43 -51 53 l-31 19 6 -74 c8 -84 0 -110 -46
-163 -74 -84 -150 -105 -236 -65 -63 28 -94 87 -107 205 l-6 50 14 -35 c8 -19
15 -47 15 -62 2 -59 65 -18 110 71 25 48 85 287 78 306 -5 12 -3 13 12 3 10
-6 27 -8 37 -4 17 7 15 10 -15 24 -27 14 -41 32 -67 91 -19 40 -34 75 -34 76
0 1 29 5 64 7 105 9 186 78 186 157 l0 35 -29 -45 c-38 -61 -69 -83 -155 -112
l-74 -25 -76 78 c-42 42 -76 80 -76 82 0 3 24 8 53 10 79 6 132 39 223 133 79
83 81 85 128 85 115 0 193 -103 173 -227 -8 -48 -49 -108 -86 -124 -33 -15
-24 -29 20 -29 33 0 104 51 122 87 23 45 29 122 14 185 -24 100 -99 173 -201
198 -53 13 -59 12 -116 -12 l-59 -26 -4 36 -4 37 -1 -39 c-2 -49 -75 -138
-138 -168 -41 -20 -44 -21 -69 -4 -38 25 -56 75 -53 149 1 34 2 115 2 180 1
100 3 116 16 111 8 -3 23 -9 33 -11 9 -3 17 -11 17 -19 0 -8 6 -11 15 -8 8 3
13 10 12 16 -1 5 33 22 76 37 51 19 94 43 125 70 26 23 70 57 97 76 47 32 52
34 95 24 61 -14 86 -32 121 -87 57 -90 22 -242 -56 -242 -38 0 -31 -27 11 -40
47 -16 83 0 130 53 49 58 59 99 45 183 -7 38 -21 85 -31 106 -10 20 -17 39
-14 42 2 3 1 4 -3 1 -8 -6 -63 45 -63 59 0 5 14 -3 31 -20 29 -26 30 -27 19
-5 -23 44 -91 109 -136 131 -90 42 -121 42 -260 -1 -70 -22 -137 -39 -150 -39
-13 0 -48 9 -78 20 -61 23 -120 76 -165 149 l-29 48 57 -23 c79 -33 187 -33
256 0 58 27 129 100 156 160 10 23 21 67 25 97 5 47 2 63 -24 121 -16 36 -49
87 -72 112 -43 46 -146 106 -184 106 -12 0 -28 5 -36 10 -25 16 52 12 101 -5
24 -9 63 -31 88 -50 51 -41 62 -39 31 4 -27 39 -75 76 -123 96 -51 21 -176 31
-217 16 -19 -6 -35 -9 -38 -6 -3 3 3 40 14 82 11 49 18 115 18 178 0 117 -19
172 -97 268 l-47 57 30 0 c46 0 107 -35 140 -81 88 -123 93 -300 10 -404 -16
-21 -30 -40 -30 -42 0 -3 19 6 42 19 23 13 56 43 73 66 29 43 30 47 30 160 0
111 -2 121 -32 184 l-32 68 42 -21 c50 -26 158 -29 203 -6 47 24 122 96 148
140 35 60 49 151 35 218 -20 95 -93 187 -162 204 -37 10 -34 -4 9 -46 51 -49
74 -102 74 -171 0 -134 -105 -238 -226 -225 -61 6 -99 27 -188 101 -68 57
-108 67 -211 53 -33 -4 -105 -9 -160 -10 -90 -2 -106 1 -155 24 -30 15 -64 34
-75 43 -19 15 -18 15 13 5 19 -7 66 -9 107 -7 109 7 207 56 302 153 97 99 113
127 113 195 0 56 -26 128 -57 162 -27 30 -34 20 -14 -20 63 -123 8 -239 -110
-234 -98 4 -145 40 -211 163 l-38 70 25 49 c43 86 58 161 45 228 -17 81 -33
115 -81 172 -50 60 -121 97 -201 106 -78 9 -141 -22 -240 -120 -42 -41 -88
-78 -102 -82 -15 -3 -46 -1 -71 5 -24 6 -46 11 -48 11 -3 0 -10 -24 -17 -52
-17 -75 -21 -90 -26 -86 -2 3 3 36 11 74 8 38 15 92 15 120 0 41 5 55 26 75
39 36 53 70 60 146 8 82 -10 163 -57 255 -46 92 -83 134 -143 162 -71 34 -144
41 -236 23 -41 -8 -77 -14 -78 -12 -2 2 14 15 35 29 34 22 49 26 117 25 83 -1
123 14 64 24 -97 17 -168 19 -169 6 -1 -8 -5 12 -9 44 -15 113 -95 200 -215
232 l-67 19 -70 -25 c-78 -27 -101 -51 -124 -126 -8 -26 -14 -72 -14 -104 0
-61 -7 -69 -57 -69 -14 0 -52 -7 -85 -16 -88 -22 -93 -18 -48 48 67 100 71
187 15 314 -30 69 -54 96 -152 175 -94 75 -167 94 -341 87 -111 -4 -121 -6
-189 -41 -40 -20 -74 -37 -77 -37 -2 0 -6 14 -10 31 -8 41 -67 94 -122 109
-71 20 -168 8 -244 -30 l-65 -32 -50 47 c-28 26 -75 59 -105 73 -49 24 -67 27
-160 27 l-105 0 -95 -49 c-52 -26 -104 -56 -115 -66 -11 -10 -64 -38 -118 -63
l-97 -46 -39 57 c-56 83 -128 146 -194 170 -77 29 -178 36 -244 17z m1096 -91
c92 -27 119 -50 176 -148 25 -43 29 -61 33 -154 l5 -105 -68 72 c-38 40 -87
83 -109 96 -107 62 -313 97 -407 69 -28 -8 -77 -14 -112 -12 l-62 3 58 29 c33
16 75 30 95 32 21 1 40 2 43 3 4 1 29 19 55 42 104 86 183 106 293 73z m-912
-19 c39 -16 126 -102 118 -115 -2 -4 -28 -10 -57 -14 -53 -7 -140 -52 -202
-106 -17 -14 -42 -27 -56 -28 -48 -2 -94 -14 -132 -33 l-38 -19 0 57 c0 83 36
149 113 209 33 26 72 50 86 54 44 14 130 11 168 -5z m1480 -61 c35 -26 50 -66
37 -98 -11 -29 -273 -231 -284 -219 -4 4 -13 49 -19 100 -6 51 -20 113 -31
139 -11 26 -19 48 -17 50 2 2 32 15 68 29 83 33 201 32 246 -1z m553 -44 c30
-4 44 -8 30 -9 -28 -1 -138 -42 -241 -90 -37 -17 -98 -38 -135 -47 -38 -9
-105 -35 -149 -57 l-80 -39 41 43 c22 24 52 60 66 80 26 35 144 107 198 120
35 9 204 9 270 -1z m-1893 -75 c18 -13 20 -20 12 -43 -5 -15 -20 -40 -33 -57
l-24 -29 -54 17 c-30 9 -73 17 -96 17 -23 0 -42 4 -42 8 0 13 90 84 118 92 44
13 96 11 119 -5z m2046 -84 c47 -29 94 -102 103 -159 8 -53 -9 -153 -32 -188
-30 -46 -42 -38 -68 49 -22 73 -32 88 -84 140 -37 37 -86 71 -136 96 l-77 38
25 16 c23 16 84 33 136 39 41 5 95 -7 133 -31z m-1429 -62 c76 -21 141 -81
161 -148 l7 -24 -23 23 c-61 58 -234 100 -356 86 -29 -3 -53 -3 -53 1 1 54
159 91 264 62z m-875 -73 c-2 -2 -33 -11 -69 -20 -36 -9 -94 -30 -128 -47 -40
-19 -67 -28 -73 -22 -28 28 117 92 210 93 35 0 62 -2 60 -4z m2916 -25 c22
-10 55 -30 73 -46 32 -27 72 -92 72 -116 0 -7 -32 -43 -71 -81 l-70 -68 -62
29 c-34 16 -91 35 -127 42 -36 7 -67 14 -69 15 -6 5 49 159 69 191 31 52 114
67 185 34z m-824 -47 c67 -33 139 -106 139 -139 0 -14 -1 -25 -3 -25 -2 0 -19
11 -37 25 -49 36 -209 85 -301 92 -46 3 -76 10 -72 15 3 6 29 21 57 34 71 33
150 33 217 -2z m-2910 -184 l30 -30 -64 -55 c-36 -30 -88 -85 -116 -122 -93
-126 -101 -133 -152 -138 -51 -4 -72 5 -64 26 4 10 18 14 48 12 l42 -2 -40 11
c-22 6 -41 11 -42 13 -8 5 38 140 60 178 48 81 134 136 215 137 46 0 58 -4 83
-30z m3612 -151 c15 -7 27 -16 27 -20 0 -16 -27 -15 -80 2 -30 9 -71 22 -90
28 -31 9 -25 10 40 7 41 -2 87 -10 103 -17z m571 -127 c66 -48 100 -111 104
-198 6 -109 -4 -117 -62 -49 -28 32 -69 66 -97 80 -56 29 -157 55 -211 55 -21
0 -38 4 -38 8 0 13 68 90 102 113 62 45 132 42 202 -9z m-4954 -141 c0 -5 -12
-12 -27 -16 -88 -21 -233 -135 -333 -259 -27 -34 -72 -77 -100 -94 -49 -30
-51 -31 -45 -10 4 13 22 55 40 95 57 123 183 226 335 274 59 19 130 25 130 10z
m4947 -146 c34 -27 72 -93 73 -127 0 -35 -4 -31 -160 135 l-45 47 48 -14 c26
-8 64 -27 84 -41z m697 -135 c72 -35 112 -122 96 -210 -9 -47 -62 -130 -102
-160 l-27 -20 -18 27 c-36 58 -86 114 -116 130 -18 9 -63 26 -102 38 l-70 22
85 85 c109 109 169 130 254 88z m-3376 -257 c-10 -2 -26 -2 -35 0 -10 3 -2 5
17 5 19 0 27 -2 18 -5z m3186 -77 c34 -14 76 -59 76 -81 0 -18 -45 -27 -99
-19 -58 8 -73 16 -128 67 -33 30 -41 43 -31 49 17 12 141 1 182 -16z m-5484
-67 c-12 -16 -25 -28 -27 -25 -8 8 25 56 38 56 6 0 1 -14 -11 -31z m-120 -30
c-108 -88 -198 -211 -201 -275 0 -11 -7 -35 -14 -54 l-14 -35 5 40 c19 133 77
230 194 318 41 31 67 36 30 6z m-500 -24 c-7 -8 -17 -15 -22 -15 -6 0 -5 7 2
15 7 8 17 15 22 15 6 0 5 -7 -2 -15z m-47 -52 c-5 -15 -3 -16 8 -5 39 37 30 6
-55 -168 l-46 -95 4 68 c4 44 15 89 31 125 30 66 76 124 58 75z m6452 -54 c17
-28 56 -75 87 -104 48 -45 67 -55 129 -70 l73 -18 -28 -22 c-43 -34 -128 -57
-184 -49 -87 12 -126 43 -246 186 l-47 57 28 7 c59 13 99 27 123 45 14 10 27
18 30 18 3 1 19 -22 35 -50z m-5845 -2 c0 -2 -9 -14 -20 -27 -11 -13 -20 -19
-20 -15 0 5 7 17 17 27 15 17 23 22 23 15z m5220 -6 c0 -36 -32 -167 -50 -200
-29 -59 -32 -51 -4 17 13 31 26 87 30 125 4 37 11 67 15 67 5 0 9 -4 9 -9z
m-1283 -86 l16 -30 -22 19 c-11 11 -21 25 -21 33 0 7 -3 13 -7 13 -5 0 -17 13
-27 28 -19 27 -19 27 13 -3 18 -16 40 -43 48 -60z m-4053 -62 c-30 -59 -54
-113 -54 -120 0 -7 -4 -13 -9 -13 -13 0 6 84 29 129 17 34 76 111 85 111 1 0
-22 -48 -51 -107z m5712 -68 c8 -27 13 -66 13 -85 -1 -26 -3 -29 -6 -10 -4 24
-35 145 -48 185 -3 11 1 7 11 -10 9 -16 23 -52 30 -80z m168 -21 c44 -30 48
-44 5 -16 -46 28 -149 122 -149 134 0 5 24 -13 54 -42 29 -28 70 -63 90 -76z
m-2035 -26 c15 -43 8 -45 -11 -3 -8 19 -12 35 -8 35 5 0 13 -14 19 -32z
m-1216 -291 c5 3 22 6 38 5 18 0 26 4 23 11 -2 7 6 13 20 13 14 1 27 -4 30
-11 5 -14 76 -10 107 6 11 6 21 4 29 -6 8 -10 18 -11 35 -5 14 5 27 6 29 1 4
-6 97 -7 114 -2 1 1 3 1 5 2 1 0 21 4 45 9 37 6 45 5 57 -13 12 -18 18 -19 40
-9 32 15 85 16 85 1 0 -6 16 -10 38 -8 20 1 44 -1 52 -4 8 -3 55 -8 103 -12
81 -5 140 -21 237 -62 40 -17 76 -69 61 -87 -6 -7 -14 -31 -20 -55 -7 -35 -6
-49 6 -67 16 -26 25 -225 10 -241 -5 -4 -20 5 -33 20 -24 28 -24 28 -24 5 0
-22 19 -58 47 -86 7 -7 13 -21 13 -30 0 -9 7 -35 15 -57 8 -22 14 -55 15 -73
0 -51 63 -162 136 -243 135 -148 160 -171 236 -226 61 -44 80 -64 87 -90 21
-74 -6 -80 -89 -22 -63 45 -109 57 -217 58 -57 1 -95 -5 -192 -30 -38 -9 -54
-3 -31 11 8 6 10 10 4 10 -6 0 -14 -3 -18 -7 -11 -11 -79 -32 -88 -27 -4 3
-25 0 -45 -5 -34 -9 -36 -9 -19 4 26 19 20 19 -76 -5 -56 -15 -84 -18 -92 -10
-9 7 -40 1 -106 -20 -51 -17 -95 -28 -98 -25 -3 2 1 12 9 21 13 16 12 16 -11
4 -14 -7 -36 -22 -49 -34 -23 -20 -24 -20 -17 -1 6 17 4 16 -19 -5 -15 -14
-28 -23 -30 -20 -2 3 -13 -8 -26 -24 -21 -26 -23 -27 -30 -10 -6 17 -8 16 -20
-9 -11 -25 -14 -27 -20 -10 -6 19 -30 -49 -44 -129 -7 -38 -19 -49 -28 -25 -3
6 -6 -8 -6 -34 -1 -25 -5 -49 -9 -55 -44 -49 -60 -247 -25 -306 27 -45 64 -40
148 17 37 25 92 45 125 45 15 0 56 22 95 51 84 61 126 83 185 99 74 20 110 21
50 1 -116 -38 -183 -86 -282 -204 -56 -67 -60 -87 -19 -87 64 0 88 11 110 50
20 37 105 120 121 120 4 0 11 -19 14 -42 8 -52 42 -115 77 -140 33 -25 89 -37
165 -38 102 0 160 56 171 164 l6 55 31 -16 c72 -36 104 -90 74 -122 -11 -11
-9 -11 10 -1 42 21 34 3 -12 -29 -60 -42 -113 -60 -200 -68 l-71 -7 50 -8 c32
-4 86 -2 147 7 137 21 141 20 157 -16 l14 -31 41 43 c63 65 92 79 163 79 41 0
66 5 77 15 8 8 22 15 30 15 19 0 21 16 4 23 -7 3 1 6 18 6 25 1 33 -4 36 -22
5 -28 -1 -49 -13 -42 -5 4 -6 0 -3 -8 3 -8 -4 -47 -16 -88 -27 -99 -35 -208
-21 -299 27 -173 33 -207 48 -254 18 -55 13 -230 -6 -249 -6 -6 -11 -19 -11
-29 0 -25 -40 -137 -62 -173 -10 -16 -18 -39 -18 -50 0 -11 -6 -30 -14 -41 -8
-11 -20 -48 -27 -82 -7 -34 -17 -62 -21 -62 -4 0 -8 -6 -8 -14 0 -8 -7 -16
-15 -20 -8 -3 -15 -17 -15 -31 0 -19 -5 -25 -22 -26 -18 -1 -19 -2 -5 -6 9 -2
15 -8 12 -13 -3 -5 -12 -7 -19 -4 -8 3 -21 -5 -30 -18 -9 -12 -16 -18 -16 -13
0 20 -23 -15 -24 -37 -1 -17 -7 -22 -21 -20 -19 2 -19 2 -2 -11 9 -8 17 -23
17 -33 0 -15 -2 -16 -9 -5 -7 11 -11 10 -20 -7 -6 -12 -10 -25 -9 -29 1 -4 -3
-19 -9 -33 -6 -14 -14 -34 -18 -45 l-7 -20 -8 20 c-5 15 -8 9 -7 -20 0 -22 2
-35 4 -28 2 7 11 9 19 6 10 -4 12 0 8 11 -3 9 -1 16 5 16 21 0 6 -51 -15 -52
-5 -1 -8 -11 -7 -22 1 -12 0 -15 -3 -8 -3 6 -12 12 -20 12 -8 0 -11 6 -8 15
12 30 -4 14 -21 -21 -16 -34 -16 -36 2 -51 17 -14 17 -14 0 -9 -10 3 -25 6
-33 6 -8 0 -11 6 -8 15 4 8 1 15 -6 15 -18 0 -7 -32 15 -44 11 -6 23 -15 28
-21 4 -6 11 -5 16 5 6 8 13 11 16 8 4 -4 0 -17 -9 -30 -9 -12 -16 -17 -16 -10
0 22 -15 13 -26 -16 -9 -23 -17 -29 -43 -29 -17 0 -31 4 -31 9 0 5 -4 6 -10 3
-15 -9 -12 -25 5 -25 11 0 14 -7 9 -25 -5 -19 -2 -25 10 -25 9 0 16 -5 16 -11
0 -5 -4 -8 -9 -5 -13 8 -81 16 -81 10 0 -7 27 -34 34 -34 3 0 6 8 6 17 0 13 3
14 11 6 19 -19 -15 -47 -41 -33 -16 9 -22 8 -26 -5 -10 -24 11 -41 30 -26 8 7
20 10 26 6 5 -3 10 -1 10 4 0 6 7 11 16 11 14 0 14 -1 0 -16 -9 -8 -20 -13
-24 -10 -5 3 -16 -8 -25 -24 -11 -18 -23 -27 -32 -23 -8 3 -15 0 -15 -6 0 -6
6 -11 14 -11 8 0 22 -7 30 -16 9 -8 20 -13 26 -9 6 3 7 -1 4 -10 -6 -14 -8
-14 -24 0 -18 17 -55 21 -45 5 4 -6 10 -8 15 -5 4 3 10 -2 13 -10 5 -11 1 -12
-19 -5 -29 11 -40 13 -31 4 3 -4 -1 -13 -9 -21 -12 -12 -18 -13 -29 -3 -10 8
-15 9 -15 2 0 -6 8 -16 18 -21 14 -9 14 -12 4 -19 -8 -5 -13 -13 -11 -18 1 -5
-6 -11 -17 -13 -10 -2 -23 -10 -27 -18 -7 -11 -12 -12 -23 -2 -11 9 -18 9 -26
1 -9 -9 -7 -12 10 -12 12 0 22 -4 22 -10 0 -13 -12 -13 -46 0 -24 9 -25 9 -14
-5 7 -8 19 -15 26 -15 8 0 14 -8 14 -17 0 -15 -2 -16 -10 -3 -5 8 -10 11 -10
6 0 -5 -7 -2 -17 5 -13 11 -17 11 -21 1 -3 -10 -7 -10 -20 0 -14 12 -14 11 -2
-9 9 -14 18 -19 25 -13 6 5 18 2 30 -6 18 -13 18 -15 3 -31 -16 -15 -17 -15
-11 7 5 21 4 21 -17 10 -18 -10 -24 -9 -31 1 -5 8 -9 18 -9 23 0 5 -3 7 -6 4
-3 -4 -1 -16 6 -27 12 -23 1 -28 -18 -9 -9 9 -12 9 -12 0 0 -6 9 -16 20 -22
14 -8 20 -8 20 0 0 6 4 9 9 6 5 -4 12 0 14 6 4 8 6 9 6 2 1 -6 -6 -17 -14 -24
-8 -7 -15 -21 -15 -31 0 -23 -13 -24 -34 -4 -8 8 -16 15 -18 15 -3 0 -6 -30
-8 -85 -1 -16 -3 -17 -10 -5 -5 8 -6 18 -3 24 4 5 -1 7 -10 3 -9 -3 -19 -2
-22 3 -4 6 -10 10 -16 10 -5 0 -4 -9 3 -19 7 -11 17 -19 22 -18 11 2 11 -42 1
-52 -12 -11 -17 10 -5 24 10 12 10 15 -3 15 -8 0 -17 6 -20 13 -3 8 -10 5 -24
-10 -21 -24 -38 -19 -46 12 -4 15 -5 14 -6 -7 0 -16 3 -28 9 -28 8 0 8 -28 0
-50 -1 -3 -2 -13 -1 -22 1 -10 -3 -18 -8 -18 -6 0 -11 10 -12 23 l0 22 -9 -22
c-5 -13 -15 -23 -21 -23 -9 0 -9 -3 0 -14 9 -11 9 -15 -1 -19 -7 -2 -10 -8 -6
-12 12 -13 29 6 22 27 -4 14 -2 18 5 14 14 -9 14 -46 0 -46 -5 0 -8 -4 -5 -9
3 -4 -6 -6 -20 -3 -18 3 -23 9 -19 20 3 8 0 19 -7 24 -18 11 -28 10 -28 -3 0
-5 5 -7 10 -4 14 8 13 -28 -1 -42 -8 -8 -4 -16 15 -28 31 -21 28 -32 -4 -15
-25 13 -33 9 -24 -13 3 -10 12 -13 22 -9 14 5 15 4 2 -10 -13 -13 -16 -13 -30
0 -13 14 -15 14 -18 -1 -2 -9 -8 -17 -14 -17 -5 0 -8 6 -5 13 3 7 -4 19 -14
25 -12 8 -19 8 -19 2 0 -5 5 -10 11 -10 6 0 9 -7 6 -15 -4 -8 -2 -17 3 -20 6
-4 10 -11 10 -17 0 -6 -6 -6 -15 2 -9 7 -19 10 -23 6 -4 -4 2 -14 13 -23 20
-15 20 -15 -2 -8 -19 5 -23 2 -23 -14 0 -11 -4 -23 -10 -26 -5 -3 -10 -1 -10
4 0 6 -5 11 -11 11 -6 0 -8 -9 -4 -21 5 -16 3 -20 -6 -16 -8 2 -13 10 -12 16
2 6 -2 11 -7 11 -12 0 -13 -27 -1 -34 5 -3 7 -15 4 -26 -3 -11 -9 -17 -14 -15
-4 3 -6 12 -3 19 3 7 -3 19 -12 27 -16 13 -16 12 -6 -7 8 -16 8 -24 0 -32 -7
-7 -9 -12 -5 -12 4 0 2 -6 -5 -14 -7 -8 -17 -12 -21 -9 -5 3 -14 -3 -21 -13
-15 -20 -38 -11 -29 11 4 11 -2 15 -21 15 -16 0 -26 -6 -26 -14 0 -8 -7 -16
-15 -20 -8 -3 -15 -13 -15 -23 0 -15 -2 -15 -15 3 -13 16 -16 17 -24 4 -8 -12
-13 -12 -23 -2 -10 10 -15 8 -25 -10 -10 -19 -12 -20 -13 -5 0 11 -5 16 -12
12 -7 -4 -4 1 6 9 11 9 16 19 11 23 -4 5 -10 2 -12 -4 -8 -21 -26 -14 -20 7 6
22 -8 28 -16 6 -3 -7 0 -19 6 -25 8 -8 7 -15 -5 -28 -16 -15 -17 -15 -12 8 l6
24 -20 -25 c-11 -13 -18 -28 -16 -32 3 -4 0 -8 -5 -8 -15 0 -14 4 9 46 12 20
19 39 16 42 -3 2 -8 -3 -12 -12 -7 -19 -21 -21 -27 -3 -2 6 -2 -1 1 -17 4 -28
3 -29 -12 -14 -9 9 -16 21 -16 27 0 6 -5 11 -11 11 -5 0 -7 -4 -4 -10 3 -5 -1
-10 -10 -10 -12 0 -15 6 -10 23 7 22 7 22 -8 2 -9 -11 -11 -21 -6 -23 13 -5
11 -29 -3 -38 -6 -4 -8 -3 -4 4 3 6 2 13 -4 17 -5 3 -10 1 -10 -6 0 -8 -4 -8
-15 1 -13 10 -15 9 -16 -11 -2 -24 -2 -24 -6 -1 -3 16 -11 22 -29 22 -17 0
-23 -4 -18 -12 5 -10 4 -10 -6 -1 -17 16 -3 35 21 28 13 -4 19 -2 19 8 0 9 4
17 9 19 4 2 5 12 0 23 -7 19 -8 19 -8 -3 -1 -12 -9 -25 -18 -29 -26 -9 -53
-34 -48 -44 3 -4 1 -10 -4 -13 -6 -4 -8 8 -5 28 2 22 -1 38 -11 46 -10 9 -15
9 -15 1 0 -6 5 -11 10 -11 6 0 10 -5 10 -11 0 -16 -28 -41 -39 -35 -5 4 -12 0
-15 -6 -3 -7 -3 -2 1 12 5 22 4 23 -10 12 -20 -17 -38 -7 -30 16 6 16 6 16
-10 0 -22 -21 -21 -25 3 -31 11 -3 20 -11 20 -19 0 -11 -2 -11 -9 0 -4 8 -11
13 -15 13 -24 -3 -28 1 -22 25 4 16 3 23 -3 20 -5 -4 -12 -2 -16 4 -9 15 -18
12 -47 -15 -17 -16 -28 -20 -31 -12 -3 9 -8 9 -20 -2 -16 -12 -18 -12 -16 5 0
3 -7 11 -17 18 -17 13 -12 36 8 36 6 0 5 -7 -3 -17 -12 -14 -12 -16 0 -12 8 3
18 15 22 28 6 15 5 20 -2 15 -8 -4 -9 1 -5 17 6 21 6 22 -5 5 -6 -10 -20 -27
-30 -37 -11 -11 -17 -24 -14 -29 4 -6 1 -10 -5 -10 -14 0 -5 32 21 74 26 42
24 59 -2 19 -21 -33 -39 -43 -39 -22 0 5 5 7 10 4 6 -3 10 0 10 8 0 20 25 68
42 79 10 8 10 9 -2 5 -8 -2 -23 -20 -34 -40 -18 -35 -43 -54 -54 -42 -3 3 4
12 16 21 12 8 22 20 22 26 0 7 -7 3 -15 -8 -8 -10 -15 -15 -15 -9 0 5 -7 -1
-16 -13 -18 -26 -11 -44 14 -36 13 5 14 4 3 -4 -7 -5 -10 -16 -6 -23 4 -8 -3
-3 -14 11 -12 14 -18 31 -14 40 6 14 6 36 1 79 -2 15 -5 17 -15 9 -16 -13 -16
-13 4 -33 14 -14 14 -18 2 -26 -8 -5 -15 -4 -17 1 -2 6 -8 8 -13 4 -5 -3 -9
-1 -9 5 0 5 6 11 13 14 10 4 10 7 0 18 -10 9 -13 10 -13 1 0 -7 -4 -12 -10
-12 -18 0 -10 19 11 25 11 4 18 9 15 12 -3 3 -1 15 5 26 9 15 8 18 -2 12 -9
-6 -10 -3 -5 11 6 15 5 17 -5 6 -17 -16 -33 -16 -26 1 10 26 -18 35 -56 18
-40 -17 -45 -26 -21 -35 11 -4 18 1 21 14 3 11 14 20 24 20 25 0 24 -16 -1
-23 -11 -3 -20 -12 -20 -20 0 -8 -7 -17 -14 -20 -11 -4 -13 -1 -9 10 5 13 2
15 -11 10 -9 -4 -15 -3 -11 2 9 16 -16 25 -27 10 -7 -11 -8 -9 -6 6 2 12 10
19 20 17 11 -2 15 5 14 23 -1 23 -16 37 -16 15 0 -5 -7 -10 -16 -10 -13 0 -14
3 -4 15 6 8 9 19 5 26 -5 8 -1 9 14 4 25 -8 27 3 4 21 -15 10 -16 15 -5 25 14
16 16 53 2 44 -6 -4 -9 -14 -8 -23 2 -10 -5 -17 -17 -19 -11 -1 -14 0 -7 3 20
9 14 27 -9 21 -13 -3 -19 -1 -16 6 2 7 12 12 22 12 10 0 20 6 23 13 3 9 -3 10
-22 2 -17 -6 -26 -6 -26 0 0 6 3 10 8 10 4 0 13 10 21 23 13 19 12 21 -1 10
-8 -7 -18 -10 -21 -6 -4 3 -7 1 -7 -5 0 -7 -5 -12 -11 -12 -6 0 -8 8 -5 18 5
16 2 18 -26 14 -18 -3 -36 -10 -40 -16 -5 -7 -8 -5 -8 5 0 22 -42 33 -53 14
-4 -8 -12 -15 -17 -15 -6 0 0 12 12 26 13 14 24 20 26 15 2 -6 8 -11 14 -11 6
0 8 6 5 14 -3 8 2 16 14 19 19 5 27 27 9 27 -5 0 -10 -4 -10 -10 0 -16 -37
-12 -44 5 -8 21 -23 19 -29 -6 -5 -18 -8 -19 -26 -7 -11 7 -18 14 -16 17 3 2
12 -2 22 -10 15 -12 16 -12 10 4 -5 13 0 21 18 29 14 6 25 15 25 19 0 11 -31
0 -52 -19 -16 -13 -18 -13 -24 2 -3 9 -15 16 -25 16 -10 0 -18 6 -16 13 3 17
35 39 47 32 13 -8 13 -35 0 -35 -5 0 -7 -6 -4 -14 5 -12 9 -11 25 5 19 19 19
20 -3 42 -13 12 -30 21 -40 19 -9 -2 -23 7 -32 19 l-15 22 -21 -24 c-11 -13
-20 -19 -19 -14 1 6 -1 18 -6 28 -4 10 -5 21 -1 24 3 4 6 -1 6 -10 0 -28 17
-19 34 18 19 39 32 50 41 35 8 -13 25 -13 25 0 0 5 -3 9 -7 9 -5 -1 -10 0 -13
1 -3 1 -18 3 -35 4 -24 1 -30 6 -29 23 0 21 -1 21 -29 6 -27 -14 -29 -14 -24
1 5 12 0 16 -17 16 -32 0 -38 10 -21 37 9 14 11 23 5 23 -6 0 -8 4 -5 10 3 6
1 10 -5 10 -6 0 -13 -7 -16 -15 -4 -8 -10 -12 -15 -9 -5 3 -9 0 -9 -6 0 -6 -4
-8 -10 -5 -5 3 -10 11 -10 16 0 6 5 7 10 4 6 -3 10 -1 10 5 0 6 4 9 9 6 4 -3
17 4 27 15 16 18 16 19 1 13 -11 -4 -17 -1 -17 7 -1 9 -6 7 -15 -5 -8 -11 -15
-15 -15 -9 0 15 37 46 48 39 5 -3 16 2 23 12 12 15 12 16 -2 5 -9 -7 -18 -10
-22 -7 -3 3 -14 1 -24 -4 -26 -14 -50 20 -28 38 12 10 15 10 15 1 0 -8 6 -6
16 4 9 9 13 19 10 23 -4 3 -11 0 -16 -8 -9 -13 -10 -13 -10 0 0 8 -4 21 -9 29
-14 23 -44 -5 -31 -28 6 -12 5 -18 -3 -18 -7 0 -13 10 -13 21 0 24 25 56 43
56 6 0 15 4 18 10 3 6 -1 7 -9 4 -21 -8 -21 19 -1 36 8 7 15 18 15 24 -1 6 -9
2 -18 -10 -10 -12 -28 -27 -41 -33 -21 -12 -21 -14 -5 -25 15 -12 15 -13 0
-19 -10 -4 -16 -1 -16 9 0 8 -4 12 -10 9 -21 -13 -9 7 23 37 17 17 25 28 17
24 -8 -3 -22 -8 -30 -12 -8 -3 -21 -17 -28 -32 -15 -31 -16 -45 -2 -37 14 9
12 -7 -4 -28 -12 -16 -13 -13 -10 25 3 24 5 54 6 68 0 14 2 20 5 14 6 -18 41
-5 49 18 6 19 6 19 20 1 13 -16 15 -17 27 -2 21 27 38 0 19 -31 -11 -18 -12
-22 -2 -12 21 18 34 15 19 -5 -13 -16 -12 -17 4 -4 9 7 17 10 17 6 0 -4 6 -2
13 4 8 6 17 8 20 4 4 -3 -1 -12 -11 -20 -16 -13 -15 -13 3 -4 11 5 21 20 22
33 2 18 0 20 -8 8 -8 -12 -10 -12 -7 -1 2 8 14 16 27 18 12 2 20 -1 16 -6 -3
-5 9 -3 25 6 56 27 103 27 177 0 37 -14 107 -38 156 -53 79 -25 92 -27 135
-16 85 21 230 25 420 12 160 -10 209 -10 337 3 229 24 386 -2 377 -61 -6 -40
66 -23 143 34 33 24 189 91 244 104 31 8 70 4 141 -15 19 -5 22 -4 10 4 -9 7
-10 11 -3 11 6 0 15 -5 18 -10 4 -6 11 -7 17 -4 6 4 18 -2 26 -12 13 -18 14
-18 7 4 -6 20 -4 22 19 18 14 -3 26 0 26 6 0 5 7 8 15 4 8 -3 15 -1 15 4 0 16
-19 21 -40 10 -12 -6 -20 -7 -20 -1 0 5 14 12 30 16 34 7 34 9 20 36 -7 13 -7
19 0 19 5 0 10 -4 10 -10 0 -5 5 -10 10 -10 7 0 7 6 1 19 -6 10 -7 21 -3 25 3
4 -1 4 -10 1 -15 -6 -35 22 -23 33 3 3 5 0 5 -6 0 -7 5 -12 11 -12 6 0 9 7 5
15 -3 10 1 15 12 15 13 0 10 6 -12 27 -19 19 -30 24 -33 16 -3 -7 -11 -13 -19
-13 -8 0 -14 -7 -14 -15 0 -8 5 -15 10 -15 6 0 10 5 10 11 0 5 5 7 10 4 6 -4
9 -3 8 2 -2 4 1 9 7 11 5 2 11 -1 13 -6 2 -6 -6 -13 -17 -17 -25 -8 -33 -31
-15 -45 8 -7 14 -18 14 -24 0 -6 -9 0 -19 13 -12 16 -24 22 -35 18 -10 -4 -15
-3 -11 3 3 6 13 10 22 10 14 0 15 2 1 18 -9 9 -14 22 -11 28 2 6 -8 16 -22 22
-16 7 -23 17 -19 27 3 8 2 15 -4 15 -5 0 -12 -9 -15 -20 -5 -20 -27 -28 -27
-10 0 6 5 10 11 10 5 0 7 5 4 10 -4 6 -12 4 -22 -6 -11 -11 -19 -12 -27 -4 -8
8 -7 13 4 20 8 5 11 12 8 15 -4 4 -12 -2 -19 -12 -8 -14 -19 -18 -36 -15 -15
3 -29 -1 -34 -9 -6 -9 -7 -4 -3 15 5 21 4 27 -5 22 -6 -4 -11 -14 -11 -23 0
-13 -3 -13 -15 -3 -12 10 -15 10 -15 -1 0 -11 -2 -11 -10 1 -15 23 -12 32 10
25 14 -5 20 -2 20 10 0 12 6 15 23 11 22 -6 22 -6 -1 6 -18 9 -25 9 -31 0 -4
-7 -15 -10 -23 -7 -16 7 -35 -24 -21 -34 4 -3 9 -15 11 -26 2 -16 1 -17 -7 -6
-7 12 -13 12 -24 3 -8 -7 -22 -10 -31 -6 -9 3 -16 1 -16 -5 0 -6 5 -10 11 -8
6 1 14 -4 16 -10 3 -7 0 -13 -6 -13 -15 0 -14 -27 1 -36 7 -5 9 -2 5 9 -3 8 1
21 8 27 8 7 12 17 8 24 -4 6 0 6 9 -2 8 -7 24 -10 34 -6 14 4 16 3 5 -4 -8 -6
-10 -15 -5 -23 6 -11 5 -11 -9 0 -23 18 -32 8 -33 -41 -1 -22 -7 -44 -14 -48
-20 -13 -134 -22 -176 -15 -22 4 -82 16 -134 27 -209 43 -275 49 -353 32 -40
-9 -84 -23 -99 -30 -31 -16 -149 -19 -164 -4 -5 5 -38 17 -74 26 -79 20 -132
16 -300 -26 -72 -18 -166 -34 -222 -37 -94 -6 -98 -5 -142 23 -25 16 -48 39
-51 52 -5 20 -8 22 -20 12 -11 -9 -15 -9 -15 -1 0 6 5 11 10 11 6 0 17 14 24
31 8 20 16 27 20 20 4 -7 2 -19 -5 -27 -6 -8 -9 -17 -6 -20 3 -3 11 4 17 16 9
16 9 25 0 35 -7 8 -15 14 -18 13 -24 -3 -34 4 -28 20 5 15 5 15 -8 -1 -14 -17
-15 -17 -22 5 l-8 23 -7 -25 c-6 -22 -7 -23 -8 -4 -1 26 -24 37 -40 21 -8 -8
-11 -7 -11 6 0 23 -15 21 -40 -5 -18 -20 -21 -27 -19 -44 0 -3 -8 -12 -18 -19
-13 -10 -20 -10 -25 -2 -11 17 -10 27 3 27 5 0 7 -4 4 -10 -3 -5 -1 -10 4 -10
6 0 11 2 11 4 0 2 3 12 6 20 5 12 2 15 -12 9 -14 -5 -16 -3 -11 13 7 19 7 19
-8 0 -8 -11 -15 -25 -15 -32 0 -15 -28 -26 -35 -14 -4 6 1 10 9 10 8 0 14 8
13 19 0 11 -5 17 -9 15 -5 -3 -6 -10 -3 -15 4 -5 -1 -9 -9 -9 -10 0 -13 6 -9
18 3 9 -3 5 -15 -10 -23 -27 -30 -54 -12 -43 6 3 10 1 10 -4 0 -6 -7 -11 -15
-11 -8 0 -15 -4 -15 -10 0 -11 32 -1 42 14 5 7 8 6 8 -2 0 -8 -9 -16 -21 -19
-16 -4 -20 -12 -16 -29 2 -13 -1 -28 -8 -34 -9 -8 -11 -4 -7 15 2 15 0 25 -7
25 -7 0 -10 4 -6 9 3 5 1 12 -5 16 -14 9 -13 -18 2 -33 9 -9 9 -16 -4 -29 -16
-15 -17 -15 -12 8 l5 24 -11 -24 c-6 -14 -8 -31 -5 -39 3 -8 0 -21 -6 -28 -13
-16 -49 -19 -49 -3 0 5 -4 8 -9 5 -5 -3 -7 -15 -4 -27 4 -14 11 -18 22 -13 9
3 24 8 33 11 9 3 20 18 23 34 4 16 11 27 15 24 5 -3 6 -13 3 -23 -5 -14 -3
-15 8 -4 16 14 33 16 24 2 -9 -15 -96 -52 -130 -57 -16 -2 -31 -8 -33 -13 -4
-12 -22 -13 -22 -2 0 5 11 14 25 20 14 6 25 16 25 22 0 7 -6 8 -19 0 -11 -5
-23 -10 -28 -10 -4 1 2 6 14 13 12 7 22 16 21 21 0 5 5 12 11 16 6 3 16 22 21
40 7 26 7 31 -2 22 -7 -7 -19 -12 -27 -12 -13 1 -12 4 3 15 11 8 15 15 9 15
-18 0 -24 31 -11 48 11 13 11 14 -1 7 -9 -5 -19 -2 -29 11 -13 18 -14 18 -7
-4 6 -20 4 -22 -20 -18 -15 3 -25 2 -21 -1 7 -8 -13 -33 -26 -33 -6 0 -5 7 2
15 7 8 9 22 6 31 -8 22 11 44 32 38 13 -4 13 -3 -2 6 -14 10 -20 10 -27 -1
-13 -22 -22 -2 -9 22 11 19 10 21 -4 16 -10 -4 -19 -1 -22 8 -9 23 -27 18 -21
-5 3 -11 2 -20 -3 -20 -12 0 -21 28 -11 35 5 2 11 13 14 24 3 14 1 18 -9 14
-7 -3 -13 -8 -12 -11 2 -17 -3 -23 -12 -17 -8 5 -7 12 1 22 10 12 10 16 -1 23
-12 7 -11 10 3 16 15 6 14 9 -10 32 -18 16 -23 27 -15 30 6 2 12 8 12 13 0 6
-4 7 -10 4 -5 -3 -10 -2 -10 4 0 5 4 13 10 16 6 3 -2 18 -18 33 -35 34 -52 72
-52 121 0 20 -7 46 -15 57 -8 10 -15 26 -15 34 0 9 -14 58 -31 110 -27 84 -30
105 -27 185 5 109 21 145 93 218 158 158 152 372 -17 561 -49 55 -49 56 -26
65 13 4 46 11 75 15 l52 7 62 -56 c62 -56 63 -56 75 -33 15 27 55 37 106 26
21 -4 77 -10 125 -12 69 -3 81 -2 54 6 -19 5 -43 7 -54 4 -25 -6 -147 51 -153
73 -3 9 -10 24 -15 34 -11 21 -1 42 38 78 26 25 65 49 77 49 3 0 6 -13 6 -28
0 -37 26 -111 48 -137 34 -40 65 -55 119 -55 61 0 147 17 184 36 29 15 64 87
75 153 4 22 10 41 14 41 14 0 80 -80 98 -118 24 -52 39 -61 100 -62 58 0 63 8
33 53 -29 44 -162 177 -194 194 -16 8 -26 17 -23 20 10 10 91 -36 141 -80 45
-40 56 -45 110 -49 43 -3 83 -15 138 -42 43 -20 75 -41 72 -46 -3 -5 -1 -11 5
-15 5 -3 10 1 10 9 0 9 5 16 10 16 6 0 10 8 10 18 0 10 4 22 9 28 5 5 10 59
12 119 2 87 -1 118 -14 150 -10 21 -22 42 -28 45 -6 4 -4 21 4 46 8 21 17 55
20 74 6 35 6 35 -13 -8 -24 -53 -40 -46 -40 18 0 69 -13 97 -21 45 l-6 -40 -8
45 c-5 25 -10 39 -13 32 -2 -7 -22 7 -47 35 -25 27 -44 43 -45 36 0 -6 5 -15
10 -18 6 -3 10 -11 10 -17 0 -7 -12 0 -27 14 -16 14 -37 28 -47 32 -17 6 -17
4 -5 -11 13 -17 12 -17 -7 0 -12 10 -25 17 -30 15 -5 -1 -20 4 -32 11 -13 7
-36 15 -50 17 -15 3 -35 7 -46 10 -11 4 -16 2 -12 -4 3 -5 -13 -3 -36 5 -31
11 -43 11 -48 2 -9 -14 -64 -7 -197 27 -107 27 -138 30 -113 13 11 -8 5 -9
-25 -5 -22 3 -48 6 -57 6 -9 0 -24 7 -32 16 -13 13 -35 15 -120 12 -99 -3
-103 -2 -98 17 4 17 129 147 189 196 27 22 221 96 263 101 31 3 34 0 48 -41 8
-25 35 -64 63 -93 27 -28 49 -56 49 -63 0 -20 49 -24 126 -9 221 42 315 140
331 345 6 75 6 76 38 88 80 28 142 127 152 238 11 133 -27 226 -154 377 -35
41 -63 79 -63 84 0 13 62 32 102 32 15 0 30 5 33 10 4 6 14 8 23 6 10 -3 31
-2 47 2 21 6 49 3 89 -9 33 -10 64 -15 69 -12z m2995 -33 c74 -83 110 -161
123 -268 6 -49 7 -110 3 -135 -7 -44 -8 -40 -21 64 -21 161 -43 211 -162 376
-30 42 10 16 57 -37z m-3384 -60 c3 -8 2 -12 -4 -9 -6 3 -10 10 -10 16 0 14 7
11 14 -7z m-3013 -73 c-22 -42 -40 -138 -42 -216 0 -27 -4 -59 -8 -70 -8 -19
-8 -19 -15 2 -17 54 15 228 54 291 27 44 35 40 11 -7z m7062 -1 c49 -53 74
-105 87 -181 9 -50 9 -71 0 -94 -13 -29 -13 -28 -25 45 -13 77 -31 122 -85
207 -48 75 -35 88 23 23z m-3963 -25 c5 -14 14 -25 19 -25 14 0 58 -78 66
-115 4 -21 -5 -10 -29 34 -20 36 -47 76 -61 91 -27 28 -31 40 -15 40 6 0 15
-11 20 -25z m3870 -52 c37 -42 69 -107 70 -140 l0 -22 -52 23 c-29 13 -69 27
-88 31 -38 8 -50 20 -50 50 0 24 56 95 75 95 7 0 27 -17 45 -37z m-7133 -37
c3 -3 -4 -41 -15 -83 -12 -43 -24 -94 -28 -113 -10 -54 -34 -88 -90 -126 -44
-30 -54 -33 -77 -25 -44 17 -67 66 -67 144 0 43 6 82 16 103 19 39 86 101 118
108 26 6 136 0 143 -8z m7153 -123 c50 -26 55 -32 58 -66 2 -20 0 -37 -3 -37
-13 0 -52 24 -95 60 -25 20 -55 42 -67 49 -13 6 -23 17 -23 23 0 17 69 2 130
-29z m-4275 -23 c15 -24 -71 -136 -127 -166 -15 -8 -37 -14 -49 -14 -21 0 -21
0 5 34 14 19 26 41 26 49 0 15 27 74 43 95 11 14 93 16 102 2z m415 -67 c-11
-17 -11 -17 -6 0 3 10 7 28 7 40 2 22 2 22 6 0 2 -12 -1 -30 -7 -40z m58 -111
c-13 -26 -38 -57 -57 -69 -68 -45 -68 -24 -1 52 27 32 55 74 62 94 l13 36 3
-33 c2 -21 -6 -52 -20 -80z m4160 -188 c46 -9 107 -67 138 -130 25 -52 26 -58
15 -109 -15 -65 -38 -86 -115 -105 -98 -23 -177 18 -222 115 -24 49 -34 150
-15 143 5 -1 45 -58 89 -124 87 -133 102 -148 102 -111 0 42 -111 228 -150
252 -21 13 -9 43 23 59 34 16 84 20 135 10z m-331 -26 c-3 -8 -6 -5 -6 6 -1
11 2 17 5 13 3 -3 4 -12 1 -19z m-4037 -14 c0 -89 -61 -183 -146 -224 -39 -19
-57 -22 -121 -18 -87 6 -103 18 -103 78 0 35 3 38 83 83 73 41 241 106 275
107 6 0 12 -12 12 -26z m4047 -36 c-3 -7 -5 -2 -5 12 0 14 2 19 5 13 2 -7 2
-19 0 -25z m-341 -110 c13 -26 26 -72 29 -105 5 -60 4 -58 -21 41 -8 33 -28
82 -45 110 -19 33 -22 42 -8 26 11 -14 32 -46 45 -72z m233 76 c12 -9 42 -43
66 -76 l44 -59 4 73 3 73 2 -86 c1 -51 9 -104 18 -130 11 -28 17 -78 18 -139
1 -85 -2 -101 -27 -152 -26 -52 -83 -115 -94 -104 -3 3 11 26 31 52 109 142
77 352 -78 528 -37 41 -31 50 13 20z m-2005 -103 c-6 -6 -54 40 -54 51 0 5 13
-3 29 -19 16 -15 27 -30 25 -32z m-5419 -26 c-107 -51 -196 -138 -245 -238
-22 -45 -46 -110 -52 -145 -17 -92 -33 -63 -33 61 0 85 4 110 23 152 54 117
190 203 322 204 l55 1 -70 -35z m-221 -286 c-10 -23 -19 -38 -21 -33 -4 13 26
88 33 81 3 -2 -3 -24 -12 -48z m281 -58 c-3 -5 -1 -12 5 -16 23 -14 9 -82 -35
-170 -24 -49 -45 -96 -45 -102 0 -7 -4 -13 -10 -13 -14 0 -13 154 2 203 7 22
26 55 44 73 29 32 53 46 39 25z m2745 -232 c178 -19 291 -56 305 -100 4 -11 4
-24 0 -27 -4 -4 -57 -6 -118 -5 -105 3 -157 -2 -317 -28 -56 -10 -214 -77
-230 -98 -12 -17 -88 -33 -107 -23 -18 10 -19 19 -15 94 5 98 13 117 53 125
16 3 29 12 29 19 0 18 27 31 97 49 60 14 121 13 303 -6z m2460 1 c70 -15 124
-32 140 -45 8 -6 36 -19 62 -29 26 -9 62 -27 80 -40 30 -21 33 -26 31 -71 -1
-27 -7 -51 -13 -53 -6 -2 -19 -12 -28 -22 -9 -9 -34 -20 -54 -23 -31 -5 -52 2
-124 39 -48 24 -114 53 -147 64 -70 23 -230 41 -394 43 -105 2 -118 4 -121 20
-5 23 24 55 64 72 28 12 181 40 264 48 74 8 197 6 240 -3z m-2220 -182 c50
-13 125 -44 80 -33 -112 25 -214 37 -278 32 -81 -6 -89 3 -14 14 55 8 148 3
212 -13z m1985 2 c13 -6 -14 -9 -78 -9 -63 -1 -96 3 -92 9 7 12 142 12 170 0z
m-2086 -114 c7 -39 -63 -62 -90 -30 -11 14 -10 19 11 36 29 24 73 20 79 -6z
m1964 10 c39 -30 -21 -72 -75 -53 -34 11 -37 40 -5 55 30 15 59 14 80 -2z
m2532 -75 c33 -53 65 -151 65 -201 0 -48 -17 -85 -55 -120 l-27 -25 20 41 c39
77 46 124 28 195 -9 35 -28 83 -42 106 -31 54 -23 57 11 4z m-2907 -98 c2 -8
-6 -13 -22 -13 -25 0 -33 10 -19 24 10 10 36 3 41 -11z m-1163 -10 c20 -15 19
-15 -5 -9 -14 3 -40 6 -57 6 -18 0 -33 5 -33 10 0 16 73 11 95 -7z m-3190
-223 c-28 -55 -55 -156 -55 -210 0 -26 -3 -31 -10 -20 -24 37 7 172 55 243 36
52 40 46 10 -13z m2077 -37 c58 -61 73 -98 73 -183 0 -88 -23 -140 -82 -189
-55 -45 -63 -42 -63 32 0 37 -10 98 -26 152 -14 50 -25 105 -24 124 1 37 45
99 70 100 9 1 32 -16 52 -36z m-2478 6 c-11 -18 -71 -39 -111 -39 -22 0 -51 9
-68 21 l-30 20 40 -5 c22 -4 60 -2 85 3 65 13 92 13 84 0z m243 -11 c-3 -8 -6
-5 -6 6 -1 11 2 17 5 13 3 -3 4 -12 1 -19z m-27 -108 c0 -16 7 -45 16 -64 22
-44 15 -60 -38 -88 -62 -32 -146 -30 -215 5 -71 37 -74 47 -13 47 81 0 186 55
216 112 18 34 34 28 34 -12z m7147 -57 c-3 -10 -5 -4 -5 12 0 17 2 24 5 18 2
-7 2 -21 0 -30z m-7021 -172 c16 -31 2 -80 -32 -109 -37 -32 -56 -24 -77 33
-22 58 -16 73 34 91 45 17 61 14 75 -15z m7884 -126 c8 -38 8 -60 1 -72 -9
-15 -10 -14 -11 12 0 17 -7 54 -14 83 -12 45 -12 51 -1 42 8 -6 19 -36 25 -65z
m-116 -3 c16 -31 31 -129 28 -182 -3 -43 -33 -131 -43 -124 -7 4 -9 334 -2
334 1 0 9 -12 17 -28z m-25 -124 c0 -35 -2 -39 -9 -21 -8 19 -3 63 6 63 2 0 4
-19 3 -42z m-7837 -115 c-22 -37 -46 -87 -53 -110 -15 -52 -44 -59 -54 -14
-10 48 13 112 56 153 32 31 74 50 87 42 2 -2 -14 -33 -36 -71z m201 -104 c-34
-65 -38 -79 -42 -172 -3 -66 -7 -93 -12 -77 -12 44 -10 156 6 199 12 34 70
121 81 121 2 0 -13 -32 -33 -71z m5683 -149 c-3 -30 -8 -91 -11 -135 -4 -44
-12 -127 -20 -185 -8 -58 -17 -130 -21 -160 -3 -30 -7 -62 -9 -70 -1 -8 -6
-37 -10 -65 -5 -27 -9 -57 -11 -65 -2 -8 -9 -43 -15 -77 -7 -35 -16 -63 -20
-63 -5 0 -9 -11 -9 -25 0 -14 -5 -25 -11 -25 -5 0 -8 -4 -4 -9 7 -13 -23 -90
-45 -116 -10 -11 -27 -38 -38 -60 -12 -22 -48 -69 -82 -105 -55 -59 -62 -63
-74 -48 -7 10 -15 17 -17 15 -2 -1 1 3 8 9 7 6 13 17 13 24 0 7 7 10 16 6 12
-5 15 -2 10 10 -7 18 11 47 25 38 5 -3 6 3 2 13 -6 16 -5 16 10 4 16 -13 17
-12 7 13 -12 33 -13 39 -1 32 4 -3 13 6 20 20 6 14 8 23 3 20 -4 -2 -9 4 -9
15 -2 17 1 18 13 9 8 -7 14 -11 15 -9 6 31 6 38 -1 34 -5 -3 -8 4 -7 14 1 18
3 19 18 5 15 -13 17 -12 17 12 0 16 -3 21 -8 14 -6 -9 -11 -7 -19 8 -10 19 -9
21 5 15 14 -5 16 -2 12 15 -4 14 -2 20 4 15 18 -11 39 27 27 49 -9 16 -7 20
10 25 12 3 21 12 21 20 0 8 -4 11 -10 8 -6 -3 -7 1 -4 9 3 9 10 14 14 11 5 -3
5 8 0 24 -7 25 -6 29 7 24 12 -5 12 0 -3 23 -11 15 -14 25 -8 21 17 -10 35 15
24 33 -15 24 -11 34 6 19 15 -12 16 -11 9 10 -5 18 -4 22 6 16 8 -5 5 1 -5 13
-11 12 -16 25 -13 29 4 3 7 1 7 -5 0 -7 4 -12 10 -12 6 0 6 9 0 26 -13 32 -12
37 0 29 6 -3 10 -1 10 4 0 6 -6 11 -12 11 -10 0 -9 3 1 9 7 5 10 14 7 20 -4 6
-1 11 6 11 10 0 13 21 13 79 0 44 4 77 9 74 4 -3 5 5 1 17 -6 17 -4 21 6 14
12 -6 12 -5 0 9 -10 13 -10 17 -1 17 9 0 11 9 7 30 -4 17 -3 30 2 30 4 0 6 12
3 26 -3 15 -1 24 4 21 5 -3 9 30 9 73 0 43 4 78 9 77 4 -1 13 15 20 36 6 22
14 35 19 31 4 -4 7 -1 7 7 1 8 8 -2 16 -21 10 -23 13 -52 10 -90z m-5939 -45
l-3 -40 -22 45 c-26 55 -27 77 -5 103 17 18 18 18 26 -24 4 -24 6 -62 4 -84z
m7102 -151 c2 -107 -52 -219 -132 -276 l-32 -23 23 30 c95 123 123 190 125
294 2 81 14 61 16 -25z m-4154 -214 c9 8 14 6 19 -6 4 -11 2 -15 -8 -11 -7 3
-19 0 -25 -6 -8 -8 -11 -7 -11 6 0 9 -4 17 -10 17 -5 0 -7 -6 -4 -14 3 -8 0
-17 -6 -21 -20 -13 -23 4 -5 31 16 24 19 25 27 10 7 -13 13 -14 23 -6z m-477
-20 c-7 -10 -14 -18 -15 -16 -6 6 9 36 18 36 5 0 4 -9 -3 -20z m292 -20 c0 -5
-5 -10 -11 -10 -5 0 -7 5 -4 10 3 6 8 10 11 10 2 0 4 -4 4 -10z m200 6 c0 -3
-4 -8 -10 -11 -5 -3 -10 -1 -10 4 0 6 5 11 10 11 6 0 10 -2 10 -4z m2085 -16
c3 -5 1 -10 -4 -10 -6 0 -11 5 -11 10 0 6 2 10 4 10 3 0 8 -4 11 -10z m-2569
-9 c-4 -5 -1 -11 5 -13 7 -2 6 -8 -4 -16 -12 -10 -14 -8 -14 13 0 14 4 25 9
25 5 0 7 -4 4 -9z m2934 -20 c0 -4 -6 -8 -14 -8 -8 0 -12 6 -9 14 5 13 23 9
23 -6z m-2840 -11 c0 -5 -5 -10 -11 -10 -5 0 -7 5 -4 10 3 6 8 10 11 10 2 0 4
-4 4 -10z m2249 -34 c0 -6 -3 -5 -6 2 -2 6 -8 10 -12 8 -4 -3 -8 5 -8 17 -2
21 -1 22 13 3 8 -11 14 -25 13 -30z m-2274 14 c3 -5 4 -10 1 -10 -2 0 -12 -3
-20 -6 -12 -5 -15 -2 -10 10 7 18 20 21 29 6z m35 -10 c0 -5 -5 -10 -11 -10
-5 0 -7 -5 -3 -12 5 -8 2 -9 -9 -5 -9 3 -19 2 -22 -3 -4 -6 2 -10 12 -10 15 0
15 -2 3 -9 -17 -12 -30 -5 -30 16 0 8 9 17 20 20 11 3 20 9 20 14 0 5 5 9 10
9 6 0 10 -4 10 -10z m-2430 -72 c-47 -72 -55 -99 -54 -198 1 -108 19 -157 81
-221 33 -35 34 -37 14 -44 -29 -9 -103 55 -133 115 -34 66 -31 175 6 248 24
47 90 132 103 132 3 0 -5 -15 -17 -32z m2450 21 c0 -4 -7 -9 -15 -13 -8 -3
-12 -12 -9 -21 3 -8 1 -15 -6 -15 -6 0 -9 4 -5 9 3 5 1 12 -5 16 -6 4 -6 11 2
19 13 14 38 17 38 5z m-2337 -229 c1 -184 -18 -212 -78 -116 -27 44 -30 58
-30 130 0 83 19 140 63 190 16 17 18 16 31 -35 7 -30 13 -106 14 -169z m2517
210 c0 -5 -5 -10 -11 -10 -5 0 -7 5 -4 10 3 6 8 10 11 10 2 0 4 -4 4 -10z
m2520 -15 c0 -8 -4 -15 -10 -15 -5 0 -10 7 -10 15 0 8 5 15 10 15 6 0 10 -7
10 -15z m-2630 -65 c0 -5 -5 -10 -11 -10 -5 0 -7 5 -4 10 3 6 8 10 11 10 2 0
4 -4 4 -10z m136 -12 c-1 -13 -6 -22 -9 -20 -7 2 -7 10 0 30 8 20 13 14 9 -10z
m2525 -1 c-10 -9 -11 -8 -5 6 3 10 9 15 12 12 3 -3 0 -11 -7 -18z m-2736 -7
c3 -5 1 -10 -4 -10 -6 0 -11 5 -11 10 0 6 2 10 4 10 3 0 8 -4 11 -10z m5017
-97 c27 -56 30 -69 26 -137 -5 -110 -26 -122 -25 -14 1 92 -18 163 -60 225
l-25 38 26 -25 c15 -13 41 -52 58 -87z m-5022 74 c0 -2 -10 -12 -21 -23 -22
-19 -22 -19 -8 4 12 19 29 30 29 19z m120 -23 c0 -8 -5 -12 -10 -9 -6 4 -8 11
-5 16 9 14 15 11 15 -7z m4731 -21 c22 -20 47 -49 55 -64 17 -34 17 -138 0
-194 l-12 -40 -16 81 c-9 45 -32 118 -52 162 -20 44 -36 82 -36 86 0 15 23 3
61 -31z m-2186 -21 c-3 -3 -11 0 -18 7 -9 10 -8 11 6 5 10 -3 15 -9 12 -12z
m-25 -12 c0 -4 -8 -7 -17 -5 -10 2 -20 4 -23 4 -3 1 2 5 10 10 15 10 30 6 30
-9z m-2500 -10 c0 -5 -4 -10 -10 -10 -5 0 -10 5 -10 10 0 6 5 10 10 10 6 0 10
-4 10 -10z m2980 -25 c0 -8 -2 -15 -4 -15 -2 0 -6 7 -10 15 -3 8 -1 15 4 15 6
0 10 -7 10 -15z m-3065 -25 c-3 -5 -11 -10 -16 -10 -6 0 -7 5 -4 10 3 6 11 10
16 10 6 0 7 -4 4 -10z m2485 -31 c0 -5 -4 -9 -10 -9 -5 0 -10 7 -10 16 0 8 5
12 10 9 6 -3 10 -10 10 -16z m-2410 -19 c0 -5 -5 -10 -11 -10 -5 0 -7 5 -4 10
3 6 8 10 11 10 2 0 4 -4 4 -10z m4500 -88 c11 -29 20 -64 20 -77 0 -60 29 -7
71 129 l12 40 18 -23 c24 -30 34 -101 19 -145 -12 -38 -49 -73 -87 -82 -12 -4
-23 -13 -23 -20 0 -8 -18 -50 -40 -94 -40 -79 -40 -80 -40 -192 1 -68 6 -128
14 -150 21 -57 2 -45 -23 14 -45 109 -39 188 29 331 46 98 43 196 -11 325
l-19 47 20 -25 c11 -14 29 -49 40 -78z m-2060 32 c0 -8 -4 -12 -10 -9 -5 3
-10 10 -10 16 0 5 5 9 10 9 6 0 10 -7 10 -16z m-2295 -113 c-3 -5 -1 -12 5
-16 5 -3 10 -1 10 4 0 6 4 11 9 11 5 0 7 -9 4 -20 -3 -11 -9 -20 -14 -20 -12
0 -31 39 -24 50 3 6 1 10 -4 10 -6 0 -11 -4 -11 -10 0 -5 -5 -10 -12 -10 -6 0
-3 9 7 20 16 18 20 19 27 5 5 -8 7 -19 3 -24z m2230 -1 c3 -5 -3 -10 -15 -10
-12 0 -18 5 -15 10 3 6 10 10 15 10 5 0 12 -4 15 -10z m-4538 -102 c55 -59 66
-95 43 -139 -15 -27 -34 -24 -71 13 -57 57 -81 137 -63 206 l7 23 15 -23 c8
-13 39 -49 69 -80z m4468 42 c3 -5 2 -10 -4 -10 -5 0 -13 5 -16 10 -3 6 -2 10
4 10 5 0 13 -4 16 -10z m-25 -20 c0 -5 -2 -10 -4 -10 -2 0 -12 -3 -22 -7 -16
-6 -17 -5 -4 10 17 19 30 22 30 7z m-2096 -25 c-6 -16 -24 -21 -24 -7 0 11 11
22 21 22 5 0 6 -7 3 -15z m2636 -35 c0 -5 -2 -10 -4 -10 -3 0 -8 5 -11 10 -3
6 -1 10 4 10 6 0 11 -4 11 -10z m1868 -19 c-13 -15 -25 -27 -27 -25 -4 4 39
54 47 54 2 0 -7 -13 -20 -29z m-1921 -53 c-3 -8 -6 -5 -6 6 -1 11 2 17 5 13 3
-3 4 -12 1 -19z m-2542 2 c3 -5 1 -10 -4 -10 -6 0 -11 5 -11 10 0 6 2 10 4 10
3 0 8 -4 11 -10z m4422 -69 c-10 -69 -10 -76 13 -120 20 -36 37 -52 79 -73 30
-16 66 -28 79 -28 24 0 24 -2 18 -52 -5 -43 -13 -58 -38 -80 -81 -70 -176 -39
-232 74 -31 63 -35 163 -10 230 14 34 93 135 99 125 1 -1 -3 -35 -8 -76z
m-4359 29 c-7 -11 -17 -20 -22 -20 -5 0 -1 9 9 20 10 11 20 20 22 20 2 0 -2
-9 -9 -20z m1846 -32 c-3 -4 -11 -5 -19 -1 -21 7 -19 12 4 10 11 0 18 -5 15
-9z m1577 -110 c-15 -67 -47 -130 -83 -165 -37 -36 -35 -17 7 65 19 37 43 100
53 140 16 69 17 71 26 42 6 -20 5 -49 -3 -82z m-3361 98 c0 -3 -4 -8 -10 -11
-5 -3 -10 -1 -10 4 0 6 5 11 10 11 6 0 10 -2 10 -4z m44 -11 c-4 -8 -11 -15
-16 -15 -6 0 -5 6 2 15 7 8 14 15 16 15 2 0 1 -7 -2 -15z m1636 -11 c0 -4 -9
-15 -21 -25 -19 -17 -19 -18 -2 -29 17 -10 16 -11 -2 -5 -16 4 -21 0 -21 -18
0 -12 5 -26 10 -30 7 -6 4 -7 -6 -4 -9 3 -19 1 -21 -6 -2 -7 -3 5 -3 25 1 21
4 38 9 38 4 0 7 5 7 12 0 6 8 19 18 29 17 18 32 24 32 13z m-1670 -8 c0 -3 -4
-8 -10 -11 -5 -3 -10 -1 -10 4 0 6 5 11 10 11 6 0 10 -2 10 -4z m71 -10 c-10
-12 -71 -28 -71 -19 0 5 62 32 74 33 5 0 3 -6 -3 -14z m1 -38 c-7 -7 -12 -8
-12 -2 0 14 12 26 19 19 2 -3 -1 -11 -7 -17z m-32 2 c0 -5 -5 -10 -11 -10 -5
0 -7 5 -4 10 3 6 8 10 11 10 2 0 4 -4 4 -10z m24 -36 c9 -24 2 -26 -12 -4 -7
11 -8 20 -3 20 5 0 12 -7 15 -16z m23 -6 c-3 -8 -6 -5 -6 6 -1 11 2 17 5 13 3
-3 4 -12 1 -19z m-57 2 c0 -5 -5 -10 -11 -10 -5 0 -7 5 -4 10 3 6 8 10 11 10
2 0 4 -4 4 -10z m95 -9 c-3 -6 -11 -8 -17 -5 -6 4 -5 9 3 15 16 10 23 4 14
-10z m-5 -25 c0 -3 -4 -8 -10 -11 -5 -3 -10 -1 -10 4 0 6 5 11 10 11 6 0 10
-2 10 -4z m1510 -26 c0 -5 -12 -10 -27 -9 l-28 1 25 8 c14 4 26 8 28 9 1 1 2
-3 2 -9z m-1520 -14 c0 -3 -4 -8 -10 -11 -5 -3 -10 -1 -10 4 0 6 5 11 10 11 6
0 10 -2 10 -4z m1440 -17 c0 -6 -4 -7 -10 -4 -5 3 -10 11 -10 16 0 6 5 7 10 4
6 -3 10 -11 10 -16z m-1298 -38 c8 12 9 12 6 0 -6 -22 -28 -25 -27 -4 0 12 2
14 6 4 5 -11 7 -11 15 0z m38 -10 c0 -5 -17 -21 -37 -37 -36 -27 -34 -19 7 27
17 19 30 24 30 10z m-70 -31 c0 -5 -5 -10 -11 -10 -5 0 -7 5 -4 10 3 6 8 10
11 10 2 0 4 -4 4 -10z m-30 -4 c0 -3 -4 -8 -10 -11 -5 -3 -10 -1 -10 4 0 6 5
11 10 11 6 0 10 -2 10 -4z m1310 -6 c0 -5 -4 -10 -10 -10 -5 0 -10 5 -10 10 0
6 5 10 10 10 6 0 10 -4 10 -10z m2400 -20 c37 -40 54 -92 46 -146 -6 -46 -83
-281 -98 -301 -5 -6 -33 -19 -63 -28 -67 -22 -115 -14 -158 24 -27 25 -29 31
-18 44 7 9 38 26 69 37 90 33 139 67 174 118 28 40 33 58 36 117 4 66 -2 92
-36 158 -10 19 23 4 48 -23z m-90 -123 c0 -52 -41 -120 -94 -155 -58 -39 -61
-20 -7 41 28 32 58 80 68 107 10 28 21 50 25 50 5 0 8 -19 8 -43z m-3432 -2
c-6 -14 -13 -24 -14 -22 -6 6 9 47 17 47 5 0 3 -11 -3 -25z m182 -56 c-11 -20
-13 -21 -22 -5 -5 10 -7 20 -4 23 3 4 6 1 6 -6 0 -7 4 -10 10 -6 5 3 6 13 3
23 -5 13 -3 14 6 6 10 -9 10 -17 1 -35z m644 25 c9 -24 7 -28 -9 -14 -17 14
-20 30 -6 30 5 0 12 -7 15 -16z m-29 -24 c3 -5 1 -10 -4 -10 -6 0 -11 5 -11
10 0 6 2 10 4 10 3 0 8 -4 11 -10z m-265 -13 c0 -7 -8 -17 -19 -24 -17 -11
-18 -10 -7 13 12 26 26 32 26 11z m-385 -7 c3 -5 1 -10 -4 -10 -6 0 -11 5 -11
10 0 6 2 10 4 10 3 0 8 -4 11 -10z m547 -12 c-7 -7 -12 -8 -12 -2 0 14 12 26
19 19 2 -3 -1 -11 -7 -17z m-499 -3 c-3 -9 -8 -14 -10 -11 -3 3 -2 9 2 15 9
16 15 13 8 -4z m547 11 c0 -3 -4 -8 -10 -11 -5 -3 -10 -1 -10 4 0 6 5 11 10
11 6 0 10 -2 10 -4z m1387 -103 c-3 -10 -5 -4 -5 12 0 17 2 24 5 18 2 -7 2
-21 0 -30z m-4778 -88 c0 -5 -6 1 -14 15 -8 14 -14 41 -14 60 0 33 1 32 14
-15 8 -27 14 -54 14 -60z m151 32 c104 -59 107 -106 6 -110 -35 -2 -50 3 -70
22 -42 40 -59 131 -24 131 7 0 47 -19 88 -43z m6130 -141 c41 -37 60 -38 193
-15 42 7 62 7 72 -1 21 -18 38 -68 31 -95 -15 -60 -138 -155 -201 -155 -56 0
-109 22 -147 60 -34 33 -38 43 -38 87 0 44 34 153 48 153 2 0 21 -15 42 -34z
m-352 -36 c47 -13 113 -13 146 0 14 5 26 6 26 2 0 -12 -149 -65 -188 -66 -33
-1 -39 3 -54 34 -9 19 -20 48 -24 65 l-7 30 32 -27 c17 -15 48 -32 69 -38z
m-139 -412 c1 -64 -12 -95 -67 -151 -51 -52 -90 -79 -137 -96 -37 -13 -21 -1
49 41 25 15 57 44 71 66 33 50 65 141 66 189 1 56 17 12 18 -49z m-5065 -124
c31 -14 56 -31 56 -39 0 -21 -33 -54 -62 -61 -22 -5 -34 1 -70 34 l-43 40 24
26 c14 14 28 26 32 26 3 0 32 -12 63 -26z m114 -299 c18 -25 43 -50 57 -57 32
-14 32 -41 0 -62 -31 -20 -52 -20 -101 0 -54 22 -94 62 -94 94 0 21 9 30 43
47 23 12 47 22 53 22 5 1 24 -19 42 -44z m4624 9 c82 -42 91 -131 16 -170 -59
-31 -130 2 -169 79 l-21 40 43 39 c46 41 69 43 131 12z m-4922 -24 c0 -5 -2
-10 -4 -10 -3 0 -8 5 -11 10 -3 6 -1 10 4 10 6 0 11 -4 11 -10z"/>
<path d="M4610 6102 c-27 -13 -31 -18 -16 -20 10 -2 28 5 39 17 26 25 23 26
-23 3z"/>
<path d="M4531 6070 c-7 -4 1 -7 18 -8 17 0 31 1 31 3 0 7 -39 12 -49 5z"/>
<path d="M4445 6060 l-30 -8 37 -1 c20 0 40 4 43 9 7 11 -6 11 -50 0z"/>
<path d="M3865 5180 c3 -5 8 -10 11 -10 2 0 4 5 4 10 0 6 -5 10 -11 10 -5 0
-7 -4 -4 -10z"/>
<path d="M4615 4326 c-50 -76 -69 -200 -45 -288 21 -74 124 -127 226 -115 24
2 44 1 44 -4 0 -4 8 -8 18 -8 60 -1 106 -19 127 -51 11 -16 24 -28 29 -27 6 1
11 -4 12 -10 3 -27 5 -28 14 -13 9 13 10 13 10 0 0 -9 -4 -21 -10 -28 -7 -9
-7 -9 2 -2 16 14 31 13 22 -2 -5 -8 -2 -9 11 -5 14 6 16 3 12 -13 -3 -11 -1
-20 4 -20 5 0 9 5 9 10 0 6 7 10 16 10 8 0 12 -4 9 -10 -3 -5 -1 -10 4 -10 6
0 11 5 11 11 0 8 4 8 15 -1 8 -6 19 -9 25 -5 6 4 17 1 25 -5 8 -7 15 -9 15 -5
0 4 7 2 16 -6 13 -11 14 -9 9 14 -4 14 -2 34 4 44 8 14 10 15 11 3 0 -8 10
-21 23 -29 21 -13 21 -13 5 5 -12 13 -14 24 -8 34 8 13 10 12 10 -3 0 -15 2
-16 14 -5 8 7 12 16 9 21 -7 11 12 8 24 -4 9 -9 10 -6 6 11 -5 19 -3 22 10 17
12 -5 17 -1 17 13 0 11 3 19 8 18 4 -1 17 3 30 10 12 7 22 10 22 7 0 -3 10 4
23 17 18 19 29 22 67 18 67 -7 155 5 183 26 43 31 60 84 61 182 0 70 -4 97
-23 140 -29 64 -45 68 -36 8 8 -54 -8 -110 -38 -131 -12 -8 -43 -15 -69 -15
-53 0 -62 11 -88 101 l-13 46 -46 -25 c-25 -13 -50 -30 -54 -38 -4 -8 -14 -14
-21 -14 -7 0 -21 -9 -30 -19 -10 -11 -40 -29 -68 -41 -41 -18 -66 -21 -127
-18 -68 3 -87 8 -169 51 -51 26 -102 47 -112 47 -11 0 -32 -16 -47 -36 -34
-43 -71 -64 -113 -64 -41 0 -87 28 -95 57 -5 23 2 95 12 123 9 23 13 50 8 50
-2 0 -12 -11 -20 -24z"/>
<path d="M5250 3756 c0 -2 7 -7 16 -10 8 -3 12 -2 9 4 -6 10 -25 14 -25 6z"/>
<path d="M3630 3725 c0 -8 4 -15 9 -15 5 0 17 -3 26 -7 16 -5 15 -4 -1 15 -22
26 -34 28 -34 7z"/>
<path d="M5150 3731 c0 -5 5 -13 10 -16 6 -3 10 -2 10 4 0 5 -4 13 -10 16 -5
3 -10 2 -10 -4z"/>
<path d="M5103 3723 c4 -3 1 -13 -6 -22 -11 -14 -10 -14 6 -2 20 15 22 31 5
31 -6 0 -8 -3 -5 -7z"/>
<path d="M5180 3726 c0 -2 7 -7 16 -10 8 -3 12 -2 9 4 -6 10 -25 14 -25 6z"/>
<path d="M5175 3690 c3 -5 8 -10 11 -10 2 0 4 5 4 10 0 6 -5 10 -11 10 -5 0
-7 -4 -4 -10z"/>
<path d="M5210 3680 c0 -5 5 -10 11 -10 5 0 7 5 4 10 -3 6 -8 10 -11 10 -2 0
-4 -4 -4 -10z"/>
<path d="M6221 3644 c0 -11 3 -14 6 -6 3 7 2 16 -1 19 -3 4 -6 -2 -5 -13z"/>
<path d="M5815 3610 c3 -5 8 -10 11 -10 2 0 4 5 4 10 0 6 -5 10 -11 10 -5 0
-7 -4 -4 -10z"/>
<path d="M4365 3600 c-3 -5 -2 -10 4 -10 5 0 13 5 16 10 3 6 2 10 -4 10 -5 0
-13 -4 -16 -10z"/>
<path d="M4093 3593 c-15 -5 -17 -23 -4 -23 5 0 11 7 15 15 3 8 4 15 3 14 -1
0 -8 -3 -14 -6z"/>
<path d="M6283 3583 c9 -11 14 -23 10 -26 -3 -4 2 -14 13 -22 25 -19 30 -19
30 4 0 15 -3 17 -13 9 -10 -8 -13 -6 -13 8 0 11 -10 25 -22 33 -22 13 -23 13
-5 -6z"/>
<path d="M3975 3579 c-4 -6 -5 -12 -2 -15 2 -3 7 2 10 11 7 17 1 20 -8 4z"/>
<path d="M4475 3579 c-4 -6 -5 -12 -2 -15 2 -3 7 2 10 11 7 17 1 20 -8 4z"/>
<path d="M6130 3580 c0 -5 5 -10 10 -10 6 0 10 5 10 10 0 6 -4 10 -10 10 -5 0
-10 -4 -10 -10z"/>
<path d="M4336 3572 c-3 -5 1 -9 9 -9 8 0 15 4 15 9 0 4 -4 8 -9 8 -6 0 -12
-4 -15 -8z"/>
<path d="M5900 3570 c0 -5 5 -10 11 -10 5 0 7 5 4 10 -3 6 -8 10 -11 10 -2 0
-4 -4 -4 -10z"/>
<path d="M6000 3565 c-11 -13 -10 -14 4 -9 9 3 16 10 16 15 0 13 -6 11 -20 -6z"/>
<path d="M6360 3565 c-7 -9 -8 -15 -2 -15 5 0 12 7 16 15 3 8 4 15 2 15 -2 0
-9 -7 -16 -15z"/>
<path d="M4310 3553 c0 -6 7 -14 16 -17 9 -4 14 -13 10 -21 -3 -8 -1 -15 4
-15 17 0 11 26 -10 45 -11 10 -20 13 -20 8z"/>
<path d="M3905 3530 c-3 -5 -1 -10 4 -10 6 0 11 5 11 10 0 6 -2 10 -4 10 -3 0
-8 -4 -11 -10z"/>
<path d="M4375 3530 c-3 -5 -1 -10 4 -10 6 0 11 5 11 10 0 6 -2 10 -4 10 -3 0
-8 -4 -11 -10z"/>
<path d="M5940 3507 c14 -8 27 -12 30 -10 7 6 -23 23 -40 23 -8 0 -4 -6 10
-13z"/>
<path d="M3840 3490 c-8 -5 -12 -12 -9 -15 4 -3 12 1 19 10 14 17 11 19 -10 5z"/>
<path d="M3896 3483 c-6 -14 -5 -15 5 -6 7 7 10 15 7 18 -3 3 -9 -2 -12 -12z"/>
<path d="M6457 3484 c-3 -5 1 -15 9 -22 16 -14 18 -5 5 17 -5 7 -11 9 -14 5z"/>
<path d="M3860 3470 c0 -5 5 -10 11 -10 5 0 7 5 4 10 -3 6 -8 10 -11 10 -2 0
-4 -4 -4 -10z"/>
<path d="M3890 3449 c0 -5 5 -7 10 -4 6 3 10 8 10 11 0 2 -4 4 -10 4 -5 0 -10
-5 -10 -11z"/>
<path d="M3859 3404 c-11 -30 -3 -46 12 -24 8 11 9 9 4 -9 -5 -16 -4 -21 4
-17 15 9 14 39 -1 55 -10 11 -10 13 0 7 6 -4 12 -2 12 3 0 21 -21 11 -31 -15z"/>
<path d="M6470 3421 c0 -5 5 -13 10 -16 6 -3 10 -2 10 4 0 5 -4 13 -10 16 -5
3 -10 2 -10 -4z"/>
<path d="M6470 3380 c0 -5 5 -10 10 -10 6 0 10 5 10 10 0 6 -4 10 -10 10 -5 0
-10 -4 -10 -10z"/>
<path d="M6410 3339 c0 -5 5 -7 10 -4 6 3 10 8 10 11 0 2 -4 4 -10 4 -5 0 -10
-5 -10 -11z"/>
<path d="M6400 3309 c0 -6 9 -8 20 -4 11 3 20 3 20 -2 0 -4 9 -14 20 -21 17
-10 20 -10 20 4 0 8 -4 13 -9 10 -5 -3 -11 1 -15 9 -6 17 -56 21 -56 4z"/>
<path d="M6380 3299 c0 -7 -9 -9 -21 -6 -13 3 -19 1 -16 -6 3 -7 11 -10 18 -8
8 2 19 4 26 4 6 0 9 6 6 14 -6 16 -13 17 -13 2z"/>
<path d="M6300 3261 c0 -5 7 -12 16 -15 14 -5 15 -4 4 9 -14 17 -20 19 -20 6z"/>
<path d="M6397 3259 c14 -14 71 -20 78 -8 4 5 -2 9 -12 10 -10 0 -31 2 -47 4
-19 3 -26 1 -19 -6z"/>
<path d="M3986 3211 c-14 -15 -14 -19 -3 -24 9 -3 14 1 13 10 0 9 5 18 13 21
9 3 11 0 6 -8 -5 -9 -4 -11 4 -6 12 8 6 26 -8 26 -4 0 -16 -8 -25 -19z"/>
<path d="M6365 3200 c3 -5 8 -10 11 -10 2 0 4 5 4 10 0 6 -5 10 -11 10 -5 0
-7 -4 -4 -10z"/>
<path d="M4045 3190 c-3 -5 -1 -10 4 -10 6 0 11 5 11 10 0 6 -2 10 -4 10 -3 0
-8 -4 -11 -10z"/>
<path d="M4015 3180 c-3 -5 -1 -10 4 -10 6 0 11 5 11 10 0 6 -2 10 -4 10 -3 0
-8 -4 -11 -10z"/>
<path d="M4006 3141 c-17 -19 -17 -19 1 -15 11 3 20 12 20 20 0 18 0 18 -21
-5z"/>
<path d="M4066 3105 c-10 -8 -24 -16 -30 -18 -6 -2 -8 -8 -4 -12 4 -4 19 5 35
19 30 28 30 34 -1 11z"/>
<path d="M6290 3086 c0 -2 7 -6 15 -10 8 -3 15 -1 15 4 0 6 -7 10 -15 10 -8 0
-15 -2 -15 -4z"/>
<path d="M4061 3067 c-6 -8 -8 -17 -4 -20 3 -4 1 -7 -4 -7 -6 0 -13 6 -16 13
-3 6 -4 2 -4 -10 1 -18 6 -22 21 -17 15 5 18 3 13 -10 -9 -23 0 -20 14 5 9 17
8 20 -1 14 -10 -6 -11 -1 -6 19 7 29 4 33 -13 13z"/>
<path d="M6335 3050 c-3 -5 -1 -10 4 -10 6 0 11 5 11 10 0 6 -2 10 -4 10 -3 0
-8 -4 -11 -10z"/>
<path d="M6297 3016 c-4 -10 -5 -21 -2 -24 9 -9 17 6 13 25 -3 17 -4 17 -11
-1z"/>
<path d="M4020 2990 c-6 -11 -7 -20 -3 -20 5 0 14 9 21 20 7 11 8 20 2 20 -5
0 -14 -9 -20 -20z"/>
<path d="M4040 2979 c0 -5 5 -7 10 -4 6 3 10 8 10 11 0 2 -4 4 -10 4 -5 0 -10
-5 -10 -11z"/>
<path d="M4070 2981 c0 -6 4 -13 10 -16 6 -3 7 1 4 9 -7 18 -14 21 -14 7z"/>
<path d="M6255 2970 c17 -19 35 -19 35 0 0 5 -7 7 -15 4 -8 -4 -15 -1 -15 5 0
6 -5 11 -12 11 -6 0 -3 -8 7 -20z"/>
<path d="M5217 2953 c-1 0 -49 -4 -107 -8 -58 -3 -123 -10 -145 -15 -22 -5
-58 -10 -80 -10 -22 0 -47 -5 -55 -10 -13 -9 -13 -12 3 -21 9 -5 17 -16 17
-24 0 -8 5 -17 12 -21 7 -5 8 -3 3 7 -7 11 -6 12 7 2 8 -7 18 -10 22 -6 4 4
11 1 15 -6 5 -7 20 -13 35 -13 17 0 26 -6 26 -17 0 -14 2 -14 10 -1 8 12 10
12 16 -3 3 -9 11 -14 16 -11 6 4 14 0 19 -7 8 -12 11 -12 19 1 8 13 10 12 10
-2 0 -10 5 -18 10 -18 6 0 10 5 10 11 0 5 5 7 10 4 6 -4 8 -11 5 -16 -4 -5 -1
-9 4 -9 6 0 11 7 11 15 0 8 4 15 9 15 5 0 7 -10 4 -22 -4 -19 -3 -20 6 -8 10
13 13 12 26 -4 8 -11 16 -17 16 -13 1 4 2 11 3 16 2 19 16 24 16 6 0 -14 3
-15 15 -5 8 7 15 9 15 5 0 -4 7 -2 15 5 12 10 15 10 15 -4 0 -25 15 -19 28 12
11 26 11 26 9 2 -3 -22 0 -25 29 -25 29 0 31 2 23 23 -5 13 -5 22 1 22 4 0 10
-8 12 -17 3 -15 4 -15 19 0 9 9 20 13 24 9 4 -4 5 4 1 18 -3 14 -3 19 0 13 8
-18 34 -16 34 1 0 9 7 12 20 9 11 -3 26 0 34 6 9 8 16 8 20 2 9 -14 36 -2 36
15 0 8 6 14 13 14 6 0 26 12 42 26 l30 25 -29 -4 c-16 -3 -50 1 -75 8 -25 8
-72 14 -104 14 -32 0 -63 4 -70 8 -10 6 -124 12 -130 6z m103 -179 c0 -8 -5
-12 -10 -9 -6 4 -8 11 -5 16 9 14 15 11 15 -7z"/>
<path d="M6240 2910 c0 -6 -4 -9 -9 -5 -5 3 -12 1 -15 -4 -3 -5 3 -11 13 -14
21 -5 37 18 21 28 -6 4 -10 1 -10 -5z"/>
<path d="M4145 2870 c-3 -5 1 -10 9 -10 9 0 16 5 16 10 0 6 -4 10 -9 10 -6 0
-13 -4 -16 -10z"/>
<path d="M4154 2839 c-3 -6 -2 -15 4 -21 6 -6 12 -6 16 1 4 6 2 11 -4 11 -6 0
-8 5 -5 10 3 6 4 10 1 10 -3 0 -8 -5 -12 -11z"/>
<path d="M4270 2830 c-9 -6 -10 -10 -3 -10 6 0 15 5 18 10 8 12 4 12 -15 0z"/>
<path d="M4210 2810 c0 -5 5 -10 10 -10 6 0 10 5 10 10 0 6 -4 10 -10 10 -5 0
-10 -4 -10 -10z"/>
<path d="M4170 2760 c0 -5 5 -10 10 -10 6 0 10 5 10 10 0 6 -4 10 -10 10 -5 0
-10 -4 -10 -10z"/>
<path d="M6010 2760 c8 -5 22 -9 30 -9 10 0 8 3 -5 9 -27 12 -43 12 -25 0z"/>
<path d="M4326 2733 c-6 -14 -5 -15 5 -6 7 7 10 15 7 18 -3 3 -9 -2 -12 -12z"/>
<path d="M6062 2714 c10 -10 20 -15 24 -12 3 4 -5 12 -18 18 -22 12 -22 12 -6
-6z"/>
<path d="M4370 2711 c0 -6 -7 -8 -15 -5 -8 4 -15 1 -15 -5 0 -13 36 -15 45 -2
3 5 1 12 -5 16 -5 3 -10 2 -10 -4z"/>
<path d="M4275 2700 c3 -5 11 -10 16 -10 6 0 7 5 4 10 -3 6 -11 10 -16 10 -6
0 -7 -4 -4 -10z"/>
<path d="M5945 2700 c3 -5 8 -10 11 -10 2 0 4 5 4 10 0 6 -5 10 -11 10 -5 0
-7 -4 -4 -10z"/>
<path d="M5990 2690 c0 -5 0 -13 -1 -17 0 -4 9 -10 20 -15 12 -4 21 -3 21 2 0
6 -7 10 -15 10 -8 0 -15 5 -15 11 0 6 7 8 16 5 8 -3 12 -2 9 4 -8 13 -35 13
-35 0z"/>
<path d="M4321 2654 c-21 -24 -5 -28 18 -5 12 12 16 21 9 21 -7 -1 -19 -8 -27
-16z"/>
<path d="M5946 2655 c4 -8 7 -15 9 -15 2 0 5 7 9 15 3 9 0 15 -9 15 -9 0 -12
-6 -9 -15z"/>
<path d="M4405 2640 c-3 -5 -1 -10 4 -10 6 0 11 5 11 10 0 6 -2 10 -4 10 -3 0
-8 -4 -11 -10z"/>
<path d="M4476 2595 c-11 -8 -15 -15 -9 -15 6 0 16 7 23 15 16 19 11 19 -14 0z"/>
<path d="M5863 2585 c0 -8 4 -12 9 -9 4 3 8 9 8 15 0 5 -4 9 -8 9 -5 0 -9 -7
-9 -15z"/>
<path d="M4530 2579 c0 -5 5 -7 10 -4 6 3 10 8 10 11 0 2 -4 4 -10 4 -5 0 -10
-5 -10 -11z"/>
<path d="M4580 2549 c0 -5 5 -7 10 -4 6 3 10 8 10 11 0 2 -4 4 -10 4 -5 0 -10
-5 -10 -11z"/>
<path d="M4545 2540 c-3 -5 -2 -10 4 -10 5 0 13 5 16 10 3 6 2 10 -4 10 -5 0
-13 -4 -16 -10z"/>
<path d="M5843 2532 c2 -12 6 -24 10 -28 3 -4 4 4 2 16 -6 30 -16 40 -12 12z"/>
<path d="M4585 2499 c-11 -16 -1 -19 13 -3 7 8 8 14 3 14 -5 0 -13 -5 -16 -11z"/>
<path d="M5815 2500 c3 -5 11 -10 16 -10 6 0 7 5 4 10 -3 6 -11 10 -16 10 -6
0 -7 -4 -4 -10z"/>
<path d="M4515 2490 c-3 -5 -1 -10 4 -10 6 0 11 5 11 10 0 6 -2 10 -4 10 -3 0
-8 -4 -11 -10z"/>
<path d="M4493 2472 c0 -12 5 -22 9 -22 11 0 10 12 -2 30 -7 12 -9 10 -7 -8z"/>
<path d="M4550 2445 c-8 -9 -8 -15 -2 -15 12 0 26 19 19 26 -2 2 -10 -2 -17
-11z"/>
<path d="M4610 2440 c-8 -5 -10 -10 -5 -10 6 0 17 5 25 10 8 5 11 10 5 10 -5
0 -17 -5 -25 -10z"/>
<path d="M4510 2430 c0 -5 5 -10 11 -10 5 0 7 5 4 10 -3 6 -8 10 -11 10 -2 0
-4 -4 -4 -10z"/>
<path d="M4491 2414 c0 -11 3 -14 6 -6 3 7 2 16 -1 19 -3 4 -6 -2 -5 -13z"/>
<path d="M4635 2421 c-3 -5 -2 -12 3 -15 5 -3 9 1 9 9 0 17 -3 19 -12 6z"/>
<path d="M5745 2420 c3 -5 8 -10 11 -10 2 0 4 5 4 10 0 6 -5 10 -11 10 -5 0
-7 -4 -4 -10z"/>
<path d="M5775 2410 c-3 -5 -1 -10 4 -10 6 0 11 5 11 10 0 6 -2 10 -4 10 -3 0
-8 -4 -11 -10z"/>
<path d="M5750 2380 c0 -6 7 -10 15 -10 8 0 15 2 15 4 0 2 -7 6 -15 10 -8 3
-15 1 -15 -4z"/>
<path d="M4630 2360 c0 -5 5 -10 10 -10 6 0 10 5 10 10 0 6 -4 10 -10 10 -5 0
-10 -4 -10 -10z"/>
<path d="M4658 2330 c-9 -17 -15 -30 -12 -30 8 0 43 43 44 53 0 17 -16 5 -32
-23z"/>
<path d="M5688 2343 c6 -2 18 -2 25 0 6 3 1 5 -13 5 -14 0 -19 -2 -12 -5z"/>
<path d="M5680 2306 c0 -8 -7 -13 -16 -12 -9 0 -19 -6 -22 -14 -5 -13 -3 -13
11 -1 11 9 17 10 17 2 0 -22 16 -10 18 14 1 14 0 25 -3 25 -3 0 -5 -6 -5 -14z"/>
<path d="M5615 2280 c3 -5 8 -10 11 -10 2 0 4 5 4 10 0 6 -5 10 -11 10 -5 0
-7 -4 -4 -10z"/>
<path d="M4830 2249 c0 -5 5 -7 10 -4 6 3 10 8 10 11 0 2 -4 4 -10 4 -5 0 -10
-5 -10 -11z"/>
<path d="M5605 2250 c-3 -5 -1 -10 4 -10 6 0 11 5 11 10 0 6 -2 10 -4 10 -3 0
-8 -4 -11 -10z"/>
<path d="M5574 2229 c0 -10 4 -19 8 -19 4 0 8 6 8 14 0 8 -4 17 -8 20 -4 2 -8
-4 -8 -15z"/>
<path d="M4816 2227 c3 -10 9 -15 12 -12 3 3 0 11 -7 18 -10 9 -11 8 -5 -6z"/>
<path d="M5532 2200 c-9 -15 -9 -24 2 -44 l13 -26 12 27 c10 22 14 24 22 12 7
-12 9 -11 9 3 0 23 -22 28 -37 9 -6 -9 -15 -13 -19 -9 -4 4 -1 14 6 23 7 9 11
17 9 20 -3 2 -10 -4 -17 -15z"/>
<path d="M4797 2189 c-9 -6 -17 -17 -17 -24 0 -8 -4 -15 -8 -15 -5 0 -9 -7 -9
-15 0 -11 4 -12 13 -4 7 6 17 8 22 5 6 -3 12 4 15 15 3 12 10 18 16 14 6 -3
11 -1 11 4 0 6 9 11 20 11 11 0 20 4 20 9 0 10 -26 9 -36 -2 -4 -4 -12 -3 -18
2 -7 6 -18 6 -29 0z m10 -26 c-15 -16 -17 -16 -17 -1 0 9 6 18 13 21 20 7 22
-2 4 -20z"/>
<path d="M5075 2179 c-4 -6 -5 -12 -2 -15 2 -3 7 2 10 11 7 17 1 20 -8 4z"/>
<path d="M5490 2179 c0 -5 5 -7 10 -4 6 3 10 8 10 11 0 2 -4 4 -10 4 -5 0 -10
-5 -10 -11z"/>
<path d="M4886 2172 c-3 -4 4 -9 15 -9 23 -2 25 3 4 10 -8 4 -16 3 -19 -1z"/>
<path d="M5218 2163 c7 -3 16 -2 19 1 4 3 -2 6 -13 5 -11 0 -14 -3 -6 -6z"/>
<path d="M4950 2150 c-13 -8 -12 -10 3 -10 9 0 17 5 17 10 0 12 -1 12 -20 0z"/>
<path d="M5130 2130 c0 -5 5 -10 10 -10 6 0 10 5 10 10 0 6 -4 10 -10 10 -5 0
-10 -4 -10 -10z"/>
<path d="M6935 3100 c-3 -6 1 -7 9 -4 18 7 21 14 7 14 -6 0 -13 -4 -16 -10z"/>
<path d="M6820 2850 c0 -5 5 -10 11 -10 5 0 7 5 4 10 -3 6 -8 10 -11 10 -2 0
-4 -4 -4 -10z"/>
<path d="M7837 9255 c-21 -8 -50 -23 -66 -34 -30 -22 -80 -106 -68 -117 3 -4
24 9 46 29 84 76 147 90 243 54 36 -14 84 -37 108 -52 95 -60 119 -239 43
-321 -23 -25 -28 -26 -89 -20 -69 7 -78 0 -50 -39 11 -15 25 -19 69 -18 69 2
110 23 144 74 22 34 27 55 31 123 4 76 2 87 -22 129 -39 66 -114 132 -192 167
-82 37 -145 45 -197 25z"/>
<path d="M4078 663 c12 -2 30 -2 40 0 9 3 -1 5 -23 4 -22 0 -30 -2 -17 -4z"/>
<path d="M5468 593 c7 -3 16 -2 19 1 4 3 -2 6 -13 5 -11 0 -14 -3 -6 -6z"/>
</g>
</svg>
